SplineFontDB: 3.2
FontName: MFEKSans-BlackItalic
FullName: MFEK Sans Black Italic
FamilyName: MFEK Sans Black
Weight: Black
Copyright: 
Version: 0.1
ItalicAngle: -13
UnderlinePosition: -200
UnderlineWidth: 100
Ascent: 1600
Descent: 400
InvalidEm: 0
LayerCount: 2
Layer: 0 0 "Back" 1
Layer: 1 0 "Fore" 0
XUID: [1021 31 -699969567 16487490]
FSType: 0
OS2Version: 0
OS2_WeightWidthSlopeOnly: 0
OS2_UseTypoMetrics: 1
CreationTime: 1460762150
ModificationTime: 1696254521
PfmFamily: 33
TTFWeight: 900
TTFWidth: 5
LineGap: 0
VLineGap: 0
OS2TypoAscent: 2500
OS2TypoAOffset: 0
OS2TypoDescent: -850
OS2TypoDOffset: 0
OS2TypoLinegap: 0
OS2WinAscent: 2500
OS2WinAOffset: 0
OS2WinDescent: 850
OS2WinDOffset: 0
HheadAscent: 2500
HheadAOffset: 0
HheadDescent: -850
HheadDOffset: 0
OS2CapHeight: 1500
OS2XHeight: 1040
OS2FamilyClass: 2053
OS2Vendor: 'it* '
OS2UnicodeRanges: 00000001.00000000.00000000.00000000
Lookup: 258 0 0 "kerning yeah boi" { "say cheese" [300,0,4] } ['kern' ('DFLT' <'dflt' > 'grek' <'dflt' > 'latn' <'dflt' > ) ]
MarkAttachClasses: 1
DEI: 91125
KernClass2: 30 23 "say cheese"
 73 A Agrave Aacute Acircumflex Atilde Adieresis Aring Amacron Abreve Aogonek
 96 D O Ograve Oacute Ocircumflex Otilde Odieresis Oslash Dcaron Dcroat Omacron Obreve Ohungarumlaut
 81 E AE Egrave Eacute Ecircumflex Edieresis Emacron Ebreve Edotaccent Eogonek Ecaron
 1 F
 39 G Gcircumflex Gbreve Gdotaccent uni0122
 104 J U Ugrave Uacute Ucircumflex Udieresis IJ Jcircumflex Utilde Umacron Ubreve Uring Uhungarumlaut Uogonek
 11 K X uni0136
 23 L Lacute uni013B Lslash
 1 P
 1 Q
 23 R Racute uni0156 Rcaron
 36 S Sacute Scircumflex Scedilla Scaron
 21 T uni0162 Tcaron Tbar
 1 V
 53 W Wcircumflex Wgrave Wacute Wdieresis uni1E86 uni1E88
 30 Y Ycircumflex Ydieresis Ygrave
 26 Z Zacute Zdotaccent Zcaron
 73 a agrave aacute acircumflex atilde adieresis aring amacron abreve aogonek

StartChar: ampersand
Encoding: 38 38 0
Width: 1701
VWidth: 1920
Flags: HMW
LayerCount: 2
Fore
SplineSet
944 10 m 2
 556 734 l 2
 475 919 450 1000 476 1113 c 0
 515 1283 678 1435 1085 1435 c 0
 1422 1435 1592 1313 1548 1123 c 0
 1491 875 1056 697 804 596 c 0
 645 533 608 492 598 448 c 0
 593 427 600 410 604 398 c 2
 608 388 l 2
 615 370 643 355 678 355 c 0
 920 355 1216 446 1339 640 c 0
 1342 645 1347 648 1354 648 c 2
 1724 648 l 2
 1731 648 1733 645 1727 637 c 0
 1437 227 740 -35 432 -35 c 0
 216 -35 101 25 55 119 c 2
 16 199 l 2
 -23 277 -29 352 -7 448 c 0
 37 637 253 747 755 862 c 0
 932 903 1092 1032 1111 1113 c 0
 1116 1133 1096 1150 1059 1150 c 0
 1022 1150 1001 1132 994 1103 c 0
 983 1054 1034 973 1078 876 c 2
 1494 10 l 2
 1497 3 1496 0 1489 0 c 2
 959 0 l 2
 952 0 947 3 944 10 c 2
EndSplineSet
EndChar

StartChar: period
Encoding: 46 46 1
Width: 740
VWidth: 1920
Flags: HMW
LayerCount: 2
Fore
SplineSet
495 0 m 6
 5 0 l 6
 -2 0 -5 3 -3 10 c 6
 99 450 l 6
 101 457 104 460 111 460 c 6
 601 460 l 6
 608 460 611 457 609 450 c 6
 507 10 l 6
 505 3 502 0 495 0 c 6
EndSplineSet
EndChar

StartChar: zero
Encoding: 48 48 2
Width: 1350
VWidth: 1920
Flags: HMW
LayerCount: 2
Fore
SplineSet
43 488 m 262
 141 913 l 262
 216 1239 484 1435 886 1435 c 260
 1288 1435 1466 1239 1391 913 c 262
 1293 488 l 262
 1218 162 948 -35 547 -35 c 260
 146 -35 -32 162 43 488 c 262
537 508 m 262
 503 360 521 305 625 305 c 260
 729 305 773 360 807 508 c 262
 896 893 l 262
 930 1041 912 1095 808 1095 c 260
 704 1095 660 1041 626 893 c 262
 537 508 l 262
EndSplineSet
EndChar

StartChar: one
Encoding: 49 49 3
Width: 640
VWidth: 1920
Flags: HMW
LayerCount: 2
Fore
SplineSet
272 1324 m 4
 414 1326 473 1367 501 1440 c 4
 504 1447 509 1450 516 1450 c 6
 770 1450 l 6
 777 1450 779 1447 777 1440 c 6
 447 10 l 6
 445 3 442 0 435 0 c 6
 -35 0 l 6
 -42 0 -45 3 -43 10 c 6
 258 1314 l 6
 260 1321 264 1324 272 1324 c 4
EndSplineSet
EndChar

StartChar: two
Encoding: 50 50 4
Width: 1280
VWidth: 1920
Flags: HMW
LayerCount: 2
Fore
SplineSet
-76 60 m 258
 50 604 775 696 844 993 c 258
 845 998 l 258
 859 1058 828 1085 771 1085 c 256
 701 1085 658 1055 646 1002 c 258
 626 912 l 2
 624 905 620 902 613 902 c 2
 153 902 l 2
 146 902 144 905 146 912 c 2
 166 1002 l 258
 229 1276 473 1435 870 1435 c 256
 1197 1435 1396 1303 1336 1043 c 258
 1325 998 l 258
 1229 582 623 531 588 380 c 258
 585 370 l 257
 1205 370 l 2
 1212 370 1215 367 1213 360 c 2
 1132 10 l 2
 1130 3 1127 0 1120 0 c 2
 -80 0 l 2
 -87 0 -90 3 -88 10 c 2
 -76 60 l 258
EndSplineSet
EndChar

StartChar: three
Encoding: 51 51 5
Width: 1300
VWidth: 1920
Flags: HMW
LayerCount: 2
Fore
SplineSet
37 507 m 2
 507 507 l 2
 514 507 517 504 515 497 c 2
 512 487 l 2
 484 367 514 315 593 315 c 0
 680 315 736 352 752 422 c 2
 758 447 l 2
 774 517 736 560 639 560 c 2
 559 560 l 2
 552 560 550 563 552 570 c 2
 628 900 l 2
 630 907 633 910 640 910 c 2
 700 910 l 2
 767 910 815 933 829 993 c 2
 833 1008 l 2
 842 1048 826 1085 769 1085 c 0
 699 1085 669 1055 654 992 c 2
 647 962 l 2
 645 955 642 952 635 952 c 2
 175 952 l 2
 168 952 165 955 167 962 c 2
 188 1052 l 2
 242 1286 508 1435 855 1435 c 0
 1202 1435 1398 1313 1345 1083 c 2
 1339 1058 l 2
 1281 808 1013 720 756 720 c 1
 788 770 l 1
 1045 770 1300 672 1242 422 c 2
 1225 347 l 2
 1170 107 899 -35 502 -35 c 4
 150 -35 -60 129 9 427 c 6
 25 497 l 2
 27 504 30 507 37 507 c 2
EndSplineSet
EndChar

StartChar: four
Encoding: 52 52 6
Width: 1310
VWidth: 1920
InSpiro: 1
Flags: HMW
LayerCount: 2
Fore
SplineSet
1321.59472656 570 m 2
 1245.40820312 240 l 2
 1243.79199219 233 1240.09960938 230 1233.09960938 230 c 2
 1053.09960938 230 l 257
 1002.30859375 10 l 2
 1000.69238281 3 997 0 990 0 c 2
 520 0 l 2
 513 0 510.692382812 3 512.30859375 10 c 2
 563.099609375 230 l 257
 -36.900390625 230 l 2
 -43.900390625 230 -46.2080078125 233 -44.591796875 240 c 2
 59.298828125 690 l 2
 60.9150390625 697 64.30078125 703 70.916015625 710 c 2
 803.907226562 1390 l 2
 809.061523438 1395 816.215820312 1400 823.215820312 1400 c 2
 1313.21582031 1400 l 2
 1320.21582031 1400 1322.52246094 1397 1320.90722656 1390 c 2
 1133.90332031 580 l 257
 1313.90332031 580 l 2
 1320.90332031 580 1323.2109375 577 1321.59472656 570 c 2
653.903320312 580 m 257
 746.481445312 981 l 257
 318.903320312 580 l 257
 653.903320312 580 l 257
EndSplineSet
EndChar

StartChar: five
Encoding: 53 53 7
Width: 1300
VWidth: 1920
Flags: HMW
LayerCount: 2
Fore
SplineSet
47 418 m 2
 497 418 l 2
 504 418 505 415 505 409 c 0
 500 332 548 305 595 305 c 0
 664 305 722 355 743 448 c 2
 749 473 l 2
 772 573 749 605 685 605 c 0
 634 605 586 565 555 514 c 0
 549 505 543 503 536 503 c 2
 86 503 l 2
 79 503 76 505 79 513 c 2
 391 1390 l 2
 394 1397 397 1400 404 1400 c 2
 1384 1400 l 2
 1391 1400 1394 1397 1392 1390 c 2
 1358 1245 l 2
 1330 1125 1263 1050 1043 1050 c 2
 678 1050 l 5
 544 745 l 1
 521 745 l 1
 604 868 800 955 960 955 c 0
 1200 955 1323 840 1248 513 c 2
 1233 448 l 2
 1158 121 917 -35 507 -35 c 0
 173 -35 -20 101 35 408 c 0
 37 415 40 418 47 418 c 2
EndSplineSet
EndChar

StartChar: six
Encoding: 54 54 8
Width: 1429
VWidth: 1920
Flags: HMW
LayerCount: 2
Fore
SplineSet
758 640 m 260
 648 640 575 585 556 502 c 262
 542 442 l 261
 471 522 l 261
 532 786 688 890 985 890 c 260
 1312 890 1418 731 1355 457 c 262
 1343 407 l 262
 1279 129 993 -35 601 -35 c 260
 124 -35 -6 167 77 527 c 262
 150 843 l 262
 238 1223 504 1435 931 1435 c 260
 1328 1435 1474 1216 1432 1032 c 262
 1425 1002 l 6
 1423 995 1420 992 1413 992 c 6
 963 992 l 6
 956 992 953 995 955 1002 c 6
 958 1012 l 262
 966 1045 950 1085 870 1085 c 260
 743 1085 668 988 633 838 c 262
 547 462 l 262
 526 372 565 315 672 315 c 260
 791 315 847 377 865 457 c 262
 869 477 l 262
 888 560 868 640 758 640 c 260
EndSplineSet
EndChar

StartChar: seven
Encoding: 55 55 9
Width: 1195
VWidth: 1920
Flags: HMW
LayerCount: 2
Fore
SplineSet
1462 1390 m 2
 721 10 l 2
 716 3 712 0 705 0 c 2
 115 0 l 2
 108 0 106 3 111 10 c 2
 854 950 l 257
 184 950 l 2
 177 950 175 953 177 960 c 2
 276 1390 l 2
 278 1397 281 1400 288 1400 c 2
 1458 1400 l 2
 1465 1400 1466 1396 1462 1390 c 2
EndSplineSet
EndChar

StartChar: eight
Encoding: 56 56 10
Width: 1382
VWidth: 1920
Flags: HMW
LayerCount: 2
Fore
SplineSet
643 310 m 256
 733 310 789 356 807 432 c 258
 808 437 l 258
 826 514 791 560 700 560 c 256
 609 560 554 514 536 437 c 258
 535 432 l 258
 517 356 553 310 643 310 c 256
781 910 m 256
 831 910 876 947 889 1003 c 258
 890 1008 l 258
 901 1055 871 1090 823 1090 c 256
 775 1090 729 1055 718 1008 c 258
 717 1003 l 258
 704 947 731 910 781 910 c 256
777 760 m 257
 1207 760 1342 624 1288 392 c 258
 1277 347 l 258
 1220 100 1021 -35 563 -35 c 256
 155 -35 -32 100 25 347 c 258
 36 392 l 258
 90 624 335 760 715 760 c 257
 708 720 l 257
 343 725 188 837 239 1058 c 258
 245 1083 l 258
 296 1304 534 1435 902 1435 c 256
 1320 1435 1448 1304 1397 1083 c 258
 1391 1058 l 258
 1340 837 1183 725 766 720 c 257
 777 760 l 257
EndSplineSet
EndChar

StartChar: nine
Encoding: 57 57 11
Width: 1429
VWidth: 1920
Flags: HMW
LayerCount: 2
Fore
SplineSet
754 760 m 256
 864 760 937 815 956 898 c 258
 970 958 l 257
 1042 878 l 257
 981 614 824 510 527 510 c 256
 200 510 95 669 158 943 c 258
 169 993 l 258
 233 1271 519 1435 911 1435 c 256
 1388 1435 1519 1233 1436 873 c 258
 1363 557 l 258
 1275 177 988 -35 551 -35 c 260
 124 -35 -29 154 20 368 c 262
 27 398 l 6
 29 405 32 408 39 408 c 6
 489 408 l 6
 496 408 499 405 497 398 c 6
 495 388 l 262
 485 345 532 315 612 315 c 256
 739 315 840 392 879 562 c 262
 966 938 l 258
 987 1028 947 1085 840 1085 c 256
 721 1085 666 1023 648 943 c 258
 643 923 l 258
 624 840 644 760 754 760 c 256
EndSplineSet
EndChar

StartChar: A
Encoding: 65 65 12
Width: 1400
VWidth: 1872
Flags: HMW
AnchorPoint: "top" 915 1400 basechar 0
AnchorPoint: "bottom" 543 0 basechar 0
AnchorPoint: "ogonek" 1048 0 basechar 0
LayerCount: 2
Fore
SplineSet
338 520 m 1
 947 520 l 1
 891 276 l 1
 282 276 l 1
 338 520 l 1
777 984 m 5
 264 10 l 6
 262 6 258 0 250 0 c 6
 -132 0 l 2
 -135 0 -142 1 -137 10 c 2
 645 1390 l 2
 650 1398 655 1400 659 1400 c 2
 1149 1400 l 2
 1155 1400 1160 1397 1160 1390 c 2
 1312 10 l 2
 1312 7 1312 0 1303 0 c 2
 865 0 l 6
 862 0 855 0 854 10 c 6
 777 984 l 5
EndSplineSet
EndChar

StartChar: B
Encoding: 66 66 13
Width: 1341
VWidth: 1872
Flags: HMW
AnchorPoint: "bottom" 555 0 basechar 0
AnchorPoint: "top" 847 1400 basechar 0
LayerCount: 2
Fore
SplineSet
619 836 m 1
 763 836 l 2
 837 836 875 884 887 935 c 2
 893 962 l 2
 905 1013 889 1059 814 1059 c 2
 670 1059 l 1
 619 836 l 1
877 749 m 1
 1128 749 1357 652 1300 405 c 2
 1285 344 l 2
 1221 68 957 0 705 0 c 2
 -42 0 l 2
 -49 0 -52 3 -50 10 c 2
 269 1390 l 2
 271 1397 274 1400 281 1400 c 2
 1008 1400 l 2
 1260 1400 1461 1312 1404 1065 c 2
 1397 1034 l 2
 1340 787 1098 700 847 700 c 1
 877 749 l 1
745 593 m 2
 563 593 l 1
 505 341 l 1
 687 341 l 2
 771 341 810 397 822 448 c 2
 831 485 l 2
 843 536 829 593 745 593 c 2
EndSplineSet
EndChar

StartChar: C
Encoding: 67 67 14
Width: 1396
VWidth: 1872
Flags: HMW
AnchorPoint: "bottom" 615 0 basechar 0
AnchorPoint: "top" 957 1400 basechar 0
LayerCount: 2
Fore
SplineSet
1394 598 m 0
 1372 526 1344 451 1308 384 c 0
 1180 147 949 -34 593 -34 c 0
 120 -34 -17 232 69 605 c 2
 113 796 l 2
 199 1168 460 1434 933 1434 c 0
 1280 1434 1440 1286 1440 1076 c 4
 1440 1013.60644531 1422 938 1389 873 c 0
 1384.82638266 864.77923858 1384 863 1377 863 c 2
 1036 863 l 2
 1029 863 1024.26146849 864.572462866 1028 873 c 0
 1087 1006 1047 1101 905 1101 c 0
 764 1101 649 1011 602 806 c 2
 553 593 l 2
 504 379 569 299 729 299 c 0
 889 299 992 407 1033 598 c 0
 1035 607 1038 608 1045 608 c 2
 1387 608 l 2
 1394 608 1397 607 1394 598 c 0
EndSplineSet
EndChar

StartChar: D
Encoding: 68 68 15
Width: 1389
VWidth: 1872
Flags: HMW
AnchorPoint: "bottom" 505 0 basechar 0
AnchorPoint: "top" 857 1400 basechar 0
LayerCount: 2
Fore
SplineSet
564 0 m 2
 -42 0 l 2
 -49 0 -52 3 -50 10 c 2
 269 1390 l 2
 271 1397 274 1400 281 1400 c 2
 887 1400 l 2
 1291 1400 1492 1174 1404 793 c 2
 1361 608 l 2
 1273 227 1007 0 564 0 c 2
606 341 m 2
 754 341 832 429 871 598 c 2
 918 803 l 2
 957 972 919 1059 771 1059 c 2
 670 1059 l 1
 505 341 l 1
 606 341 l 2
EndSplineSet
EndChar

StartChar: E
Encoding: 69 69 16
Width: 1266
VWidth: 1872
Flags: HMW
AnchorPoint: "bottom" 565 0 basechar 0
AnchorPoint: "top" 887 1400 basechar 0
AnchorPoint: "ogonek" 980 0 basechar 0
LayerCount: 2
Fore
SplineSet
619 836 m 1
 994 836 l 2
 1001 836 1003 834 1001 827 c 2
 949 602 l 2
 947 595 945 593 938 593 c 2
 563 593 l 1
 505 341 l 1
 1187 341 l 2
 1194 341 1197 339 1195 332 c 2
 1120 10 l 2
 1118 3 1115 0 1108 0 c 2
 -42 0 l 2
 -49 0 -52 3 -50 10 c 2
 269 1390 l 2
 271 1397 274 1400 281 1400 c 2
 1412 1400 l 2
 1419 1400 1421 1397 1419 1390 c 2
 1345 1068 l 2
 1343 1061 1340 1059 1333 1059 c 2
 670 1059 l 1
 619 836 l 1
EndSplineSet
EndChar

StartChar: F
Encoding: 70 70 17
Width: 1180
VWidth: 1872
Flags: HMW
AnchorPoint: "bottom" 525 0 basechar 0
AnchorPoint: "top" 847 1400 basechar 0
LayerCount: 2
Fore
SplineSet
608 789 m 1
 992 789 l 2
 1000 789 1002 788 1000 780 c 2
 948 555 l 2
 946 547 944 546 936 546 c 2
 552 546 l 1
 428 10 l 2
 426 2 424 0 416 0 c 2
 -42 0 l 2
 -50 0 -52 2 -50 10 c 2
 269 1390 l 2
 271 1397 274 1400 281 1400 c 2
 1365 1400 l 2
 1372 1400 1374 1397 1372 1390 c 2
 1298 1068 l 2
 1296 1061 1293 1059 1286 1059 c 2
 670 1059 l 1
 608 789 l 1
EndSplineSet
EndChar

StartChar: G
Encoding: 71 71 18
Width: 1439
VWidth: 1872
Flags: HMW
AnchorPoint: "bottom" 625 0 basechar 0
AnchorPoint: "top" 947 1400 basechar 0
LayerCount: 2
Fore
SplineSet
778 528 m 2
 828 747 l 2
 830 754 833 757 840 757 c 2
 1423 757 l 2
 1430 757 1432 754 1430 747 c 2
 1260 10 l 2
 1258 3 1255 0 1248 0 c 2
 1062 0 l 2
 1055 0 1052 3 1052 10 c 2
 1047 318 l 1
 1300 620 l 1
 1190 230 893 -34 572 -34 c 0
 110 -34 -18 233 69 608 c 2
 112 793 l 2
 199 1169 460 1434 933 1434 c 0
 1244 1434 1382 1286 1423 1113 c 0
 1443 1034 1442 948 1429 873 c 0
 1427 864 1424 863 1417 863 c 2
 1074 863 l 2
 1067 863 1067 864 1068 873 c 0
 1093 1020 1036 1102 904 1102 c 0
 763 1102 649 1012 601 803 c 2
 554 598 l 2
 504 380 560 298 730 298 c 0
 861 298 968 394 1034 616 c 1
 1131 518 l 1
 785 518 l 2
 778 518 776 521 778 528 c 2
EndSplineSet
EndChar

StartChar: H
Encoding: 72 72 19
Width: 1379
VWidth: 1872
Flags: HMW
AnchorPoint: "bottom" 585 0 basechar 0
AnchorPoint: "top" 907 1400 basechar 0
LayerCount: 2
Fore
SplineSet
1046 1400 m 2
 1505 1400 l 2
 1512 1400 1514 1397 1512 1390 c 2
 1193 10 l 2
 1191 3 1189 0 1182 0 c 2
 723 0 l 2
 716 0 714 3 716 10 c 2
 840 544 l 1
 552 544 l 1
 428 10 l 2
 426 3 423 0 416 0 c 2
 -42 0 l 2
 -49 0 -52 3 -50 10 c 2
 269 1390 l 18
 271 1397 274 1400 281 1400 c 10
 739 1400 l 18
 746 1400 749 1397 747 1390 c 10
 630 885 l 1
 918 885 l 1
 1035 1390 l 2
 1037 1397 1039 1400 1046 1400 c 2
EndSplineSet
EndChar

StartChar: I
Encoding: 73 73 20
Width: 614
VWidth: 1872
Flags: HMW
AnchorPoint: "bottom" 200 0 basechar 0
AnchorPoint: "top" 522 1400 basechar 0
AnchorPoint: "ogonek" 200 0 basechar 0
LayerCount: 2
Fore
SplineSet
281 1400 m 10
 739 1400 l 18
 746 1400 749 1397 747 1390 c 10
 428 10 l 18
 426 3 423 0 416 0 c 10
 -42 0 l 18
 -49 0 -52 3 -50 10 c 10
 269 1390 l 18
 271 1397 274 1400 281 1400 c 10
EndSplineSet
EndChar

StartChar: J
Encoding: 74 74 21
Width: 1084
VWidth: 1872
Flags: HMW
AnchorPoint: "bottom" 337 0 basechar 0
AnchorPoint: "top" 1059 1400 basechar 0
LayerCount: 2
Fore
SplineSet
741 1400 m 2
 1209 1400 l 2
 1216 1400 1219 1397 1217 1390 c 2
 1017 525 l 2
 930 149 804 -34 391 -34 c 4
 46 -34 -69.6826171875 164.5390625 48 466 c 2
 121 653 l 2
 123 660 125 663 132 663 c 2
 433 663 l 2
 440 663 443 660 441 653 c 2
 370 476 l 2
 327.831427 370.875529282 350 317 410 317 c 0
 471 317 491 359 522 495 c 2
 729 1390 l 2
 731 1397 734 1400 741 1400 c 2
EndSplineSet
EndChar

StartChar: K
Encoding: 75 75 22
Width: 1418
VWidth: 1872
Flags: HMW
AnchorPoint: "bottom" 525 0 basechar 0
AnchorPoint: "top" 847 1400 basechar 0
LayerCount: 2
Fore
SplineSet
281 1400 m 10
 739 1400 l 18
 746 1400 749 1397 747 1390 c 10
 428 10 l 18
 426 3 423 0 416 0 c 10
 -42 0 l 18
 -49 0 -52 3 -50 10 c 10
 269 1390 l 18
 271 1397 274 1400 281 1400 c 10
581 714 m 1
 969 956 l 1
 1391 10 l 2
 1395 2 1393 0 1386 0 c 2
 821 0 l 2
 814 0 810 2 807 10 c 2
 581 714 l 1
1173 1390 m 2
 1179 1395 1185 1400 1195 1400 c 2
 1664 1400 l 2
 1676 1400 1677 1397 1668 1390 c 2
 853 690 l 1
 788 639 l 1
 495 384 l 1
 224 510 l 1
 1173 1390 l 2
EndSplineSet
EndChar

StartChar: L
Encoding: 76 76 23
Width: 1101
VWidth: 1872
Flags: HMW
AnchorPoint: "bottom" 525 0 basechar 0
AnchorPoint: "top" 487 1400 basechar 0
LayerCount: 2
Fore
SplineSet
281 1400 m 2
 739 1400 l 2
 746 1400 749 1397 747 1390 c 2
 505 341 l 25
 1036 341 l 2
 1043 341 1046 339 1044 332 c 2
 969 10 l 2
 967 3 964 0 957 0 c 2
 -42 0 l 2
 -49 0 -52 3 -50 10 c 2
 269 1390 l 2
 271 1397 274 1400 281 1400 c 2
EndSplineSet
EndChar

StartChar: M
Encoding: 77 77 24
Width: 1789
VWidth: 1872
Flags: HMW
AnchorPoint: "bottom" 745 0 basechar 0
AnchorPoint: "top" 1067 1400 basechar 0
LayerCount: 2
Fore
SplineSet
465 844 m 1
 272 10 l 2
 270 3 267 0 260 0 c 2
 -62 0 l 2
 -69 0 -71 3 -69 10 c 2
 250 1390 l 2
 252 1397 254 1400 261 1400 c 2
 847 1400 l 2
 854 1400 857 1397 858 1390 c 2
 924 687 l 1
 1342 1390 l 2
 1347 1397 1351 1400 1358 1400 c 2
 1914 1400 l 2
 1921 1400 1924 1397 1922 1390 c 2
 1603 10 l 2
 1601 3 1598 0 1591 0 c 2
 1152 0 l 2
 1145 0 1142 3 1144 10 c 2
 1337 844 l 1
 858 10 l 2
 853 3 849 0 842 0 c 2
 589 0 l 2
 582 0 578 3 577 10 c 2
 465 844 l 1
EndSplineSet
EndChar

StartChar: N
Encoding: 78 78 25
Width: 1340
VWidth: 1872
Flags: HMW
AnchorPoint: "bottom" 565 0 basechar 0
AnchorPoint: "top" 897 1400 basechar 0
LayerCount: 2
Fore
SplineSet
1144 1400 m 2
 1485 1400 l 2
 1492 1400 1495 1397 1493 1390 c 2
 1174 10 l 2
 1172 3 1169 0 1162 0 c 2
 688 0 l 2
 681 0 676 1 674 10 c 2
 489 948 l 1
 509 948 l 1
 292 10 l 2
 290 3 287 0 280 0 c 2
 -62 0 l 2
 -69 0 -71 3 -69 10 c 2
 250 1390 l 2
 252 1397 254 1400 261 1400 c 2
 833 1400 l 2
 841 1400 846 1399 847 1390 c 2
 969 599 l 1
 949 599 l 1
 1132 1390 l 2
 1134 1397 1137 1400 1144 1400 c 2
EndSplineSet
EndChar

StartChar: O
Encoding: 79 79 26
Width: 1541
VWidth: 1872
Flags: HMW
AnchorPoint: "bottom" 675 0 basechar 0
AnchorPoint: "top" 997 1400 basechar 0
LayerCount: 2
Fore
SplineSet
69 605 m 2
 113 796 l 2
 200 1174 512 1434 982 1434 c 0
 1452 1434 1644 1174 1557 796 c 2
 1513 605 l 2
 1426 227 1112 -34 643 -34 c 0
 174 -34 -18 227 69 605 c 2
552 591 m 2
 507 398 563 297 720 297 c 0
 877 297 977 398 1022 591 c 2
 1073 810 l 2
 1117 1002 1063 1103 906 1103 c 0
 749 1103 647 1002 603 810 c 2
 552 591 l 2
EndSplineSet
EndChar

StartChar: P
Encoding: 80 80 27
Width: 1292
VWidth: 1872
Flags: HMW
AnchorPoint: "bottom" 155 0 basechar 0
AnchorPoint: "top" 827 1400 basechar 0
LayerCount: 2
Fore
SplineSet
670 1059 m 1
 599 749 l 1
 704 749 l 2
 817 749 865 795 885 883 c 2
 894 924 l 2
 914 1012 888 1059 775 1059 c 2
 670 1059 l 1
901 1400 m 2
 1278 1400 1409 1256 1348 990 c 2
 1330 915 l 2
 1269 649 1072 505 697 505 c 2
 543 505 l 1
 428 10 l 2
 426 3 423 0 416 0 c 2
 -42 0 l 2
 -49 0 -52 3 -50 10 c 2
 269 1390 l 2
 271 1397 274 1400 281 1400 c 2
 901 1400 l 2
EndSplineSet
EndChar

StartChar: Q
Encoding: 81 81 28
Width: 1610
VWidth: 1872
Flags: HMW
AnchorPoint: "bottom" 645 0 basechar 0
AnchorPoint: "top" 967 1400 basechar 0
LayerCount: 2
Fore
SplineSet
1559 400 m 2
 1469 10 l 2
 1467 3 1465 -1 1454 -3 c 0
 1140 -53 1025 90 1085 349 c 1
 1244 573 l 1
 1165 232 1056 -34 593 -34 c 0
 129 -34 6 252 85 593 c 2
 135 808 l 2
 214 1149 478 1434 953 1434 c 0
 1428 1434 1563 1149 1484 808 c 2
 1427 564 l 2
 1401 453 1462 415 1550 410 c 0
 1562 409 1561 407 1559 400 c 2
946 591 m 2
 997 810 l 2
 1035 975 1028 1103 877 1103 c 0
 726 1103 660 975 622 810 c 2
 571 591 l 2
 531 417 540 297 691 297 c 0
 842 297 906 417 946 591 c 2
EndSplineSet
EndChar

StartChar: R
Encoding: 82 82 29
Width: 1371
VWidth: 1872
Flags: HMW
AnchorPoint: "bottom" 555 0 basechar 0
AnchorPoint: "top" 877 1400 basechar 0
LayerCount: 2
Fore
SplineSet
670 1059 m 1
 597 739 l 1
 693 739 l 2
 815 739 856 800 876 888 c 2
 881 910 l 2
 899 988 888 1059 766 1059 c 2
 670 1059 l 1
941 1400 m 2
 1339 1400 1440 1216 1388 990 c 2
 1379 954 l 2
 1325 718 1072 583 753 583 c 1
 766 642 l 1
 1114 642 1310 615 1255 377 c 2
 1242 320 l 2
 1216 209 1227 125 1257 59 c 0
 1261 48 1261 45 1260 39 c 2
 1253 10 l 2
 1251 3 1248 0 1241 0 c 2
 754 0 l 2
 747 0 744 0 741 9 c 0
 709 105 725 233 745 320 c 2
 759 380 l 2
 777 458 758 495 655 495 c 2
 540 495 l 1
 428 10 l 2
 426 3 423 0 416 0 c 2
 -42 0 l 2
 -49 0 -52 3 -50 10 c 2
 269 1390 l 2
 271 1397 274 1400 281 1400 c 2
 941 1400 l 2
EndSplineSet
EndChar

StartChar: S
Encoding: 83 83 30
Width: 1315
VWidth: 1872
Flags: HMW
AnchorPoint: "bottom" 534 0 basechar 0
AnchorPoint: "top" 856 1400 basechar 0
LayerCount: 2
Fore
SplineSet
21 490 m 2
 363 490 l 2
 366 490 373 489 371 482 c 0
 365 455 362 442 358 424 c 0
 338 318 424 279 591 279 c 0
 742 279 809 311 821 365 c 0
 834 423 746 439 634 471 c 0
 414 530 82 592 172 980 c 0
 234 1247 469 1434 869 1434 c 0
 1271 1434 1386 1239 1337 1027 c 2
 1323 968 l 2
 1321 961 1317 960 1312 960 c 2
 990 960 l 2
 985 960 979 961 981 968 c 0
 985 986 992 1009 993 1016 c 0
 999 1071 942 1140 811 1140 c 0
 694 1140 621 1098 609 1047 c 0
 594 980 688 946 814 917 c 0
 1038 867 1346 776 1264 422 c 0
 1192 109 926 -34 501 -34 c 0
 124 -34 -73 119 -10 391 c 2
 11 481 l 2
 13 488 18 490 21 490 c 2
EndSplineSet
EndChar

StartChar: T
Encoding: 84 84 31
Width: 1309
VWidth: 1872
Flags: HMW
AnchorPoint: "bottom" 515 0 basechar 0
AnchorPoint: "top" 877 1400 basechar 0
LayerCount: 2
Fore
SplineSet
241 1400 m 2
 1475 1400 l 2
 1482 1400 1484 1397 1482 1390 c 2
 1408 1068 l 2
 1406 1061 1403 1059 1396 1059 c 2
 1018 1059 l 1
 776 10 l 2
 774 3 771 0 764 0 c 2
 306 0 l 2
 299 0 296 3 298 10 c 2
 540 1059 l 1
 162 1059 l 2
 155 1059 153 1061 155 1068 c 2
 229 1390 l 2
 231 1397 234 1400 241 1400 c 2
EndSplineSet
EndChar

StartChar: U
Encoding: 85 85 32
Width: 1329
VWidth: 1872
Flags: HMW
AnchorPoint: "bottom" 580 0 basechar 0
AnchorPoint: "top" 902 1400 basechar 0
AnchorPoint: "ogonek" 675 0 basechar 0
LayerCount: 2
Fore
SplineSet
931 571 m 2
 1120 1390 l 2
 1122 1397 1125 1400 1132 1400 c 2
 1473 1400 l 2
 1480 1400 1483 1397 1481 1390 c 2
 1273 488 l 2
 1201 176 1109 -34 626 -34 c 4
 85 -34 -15 203 70 573 c 2
 259 1390 l 2
 261 1397 264 1400 271 1400 c 2
 739 1400 l 2
 746 1400 749 1397 747 1390 c 2
 574 640 l 2
 518 397 531 297 691 297 c 0
 813 297 884 368 931 571 c 2
EndSplineSet
EndChar

StartChar: V
Encoding: 86 86 33
Width: 1400
VWidth: 1872
Flags: HMW
AnchorPoint: "bottom" 662 0 basechar 0
AnchorPoint: "top" 954 1400 basechar 0
LayerCount: 2
Fore
SplineSet
707 416 m 5
 1220 1390 l 6
 1223 1396 1227 1400 1234 1400 c 6
 1616 1400 l 2
 1623 1400 1624 1396 1621 1390 c 2
 839 10 l 2
 836 4 831 0 824 0 c 2
 335 0 l 2
 328 0 325 4 324 10 c 2
 172 1390 l 2
 171 1396 174 1400 181 1400 c 2
 619 1400 l 6
 626 1400 630 1397 630 1390 c 6
 707 416 l 5
EndSplineSet
EndChar

StartChar: W
Encoding: 87 87 34
Width: 1783
VWidth: 1872
Flags: HMW
AnchorPoint: "bottom" 813 0 basechar 0
AnchorPoint: "top" 1135 1400 basechar 0
LayerCount: 2
Fore
SplineSet
599 680 m 1
 954 1390 l 2
 957 1396 962 1400 969 1400 c 2
 1310 1400 l 2
 1317 1400 1319 1396 1320 1390 c 2
 1356 645 l 1
 1673 1390 l 2
 1676 1396 1681 1400 1688 1400 c 2
 2038 1400 l 2
 2045 1400 2046 1396 2043 1390 c 2
 1405 10 l 2
 1401 3 1397 0 1390 0 c 2
 952 0 l 2
 945 0 941 3 941 10 c 2
 908 657 l 1
 560 10 l 2
 556 3 552 0 545 0 c 2
 159 0 l 2
 152 0 148 3 148 10 c 2
 158 1390 l 2
 157 1396 160 1400 167 1400 c 2
 630 1400 l 2
 637 1400 639 1396 640 1390 c 2
 599 680 l 1
EndSplineSet
EndChar

StartChar: X
Encoding: 88 88 35
Width: 1392
VWidth: 1872
Flags: HMW
AnchorPoint: "bottom" 612 0 basechar 0
AnchorPoint: "top" 934 1400 basechar 0
LayerCount: 2
Fore
SplineSet
1117 1400 m 2
 1580 1400 l 2
 1587 1400 1588 1398 1581 1390 c 2
 1006 754 l 1
 1310 10 l 2
 1313 2 1312 0 1305 0 c 2
 721 0 l 2
 714 0 711 2 708 10 c 2
 622 367 l 1
 330 10 l 2
 322 2 318 0 311 0 c 2
 -152 0 l 2
 -159 0 -161 2 -153 10 c 2
 494 660 l 1
 195 1390 l 2
 192 1398 193 1400 200 1400 c 2
 793 1400 l 2
 801 1400 805 1398 808 1390 c 2
 860 1056 l 1
 1098 1390 l 2
 1105 1398 1110 1400 1117 1400 c 2
EndSplineSet
EndChar

StartChar: Y
Encoding: 89 89 36
Width: 1447
VWidth: 1872
Flags: HMW
AnchorPoint: "bottom" 630 0 basechar 0
AnchorPoint: "top" 982 1400 basechar 0
LayerCount: 2
Fore
SplineSet
1271 1400 m 2
 1646 1400 l 2
 1653 1400 1654 1397 1648 1390 c 2
 971 554 l 1
 845 10 l 2
 843 3 840 0 833 0 c 2
 375 0 l 2
 368 0 365 3 367 10 c 2
 493 554 l 1
 202 1390 l 2
 199 1398 201 1400 208 1400 c 2
 749 1400 l 2
 756 1400 761 1397 763 1390 c 2
 894 895 l 1
 1253 1390 l 2
 1259 1397 1264 1400 1271 1400 c 2
EndSplineSet
EndChar

StartChar: Z
Encoding: 90 90 37
Width: 1233
VWidth: 1872
Flags: HMW
AnchorPoint: "bottom" 548 0 basechar 0
AnchorPoint: "top" 870 1400 basechar 0
LayerCount: 2
Fore
SplineSet
-187 10 m 2
 715 1059 l 1
 195 1059 l 2
 188 1059 186 1061 188 1068 c 2
 262 1390 l 2
 264 1397 267 1400 274 1400 c 2
 1467 1400 l 2
 1474 1400 1475 1398 1468 1390 c 2
 567 341 l 1
 1166 341 l 2
 1173 341 1175 339 1173 332 c 2
 1098 10 l 2
 1096 3 1094 0 1087 0 c 2
 -186 0 l 2
 -193 0 -195 2 -187 10 c 2
EndSplineSet
EndChar

StartChar: a
Encoding: 97 97 38
Width: 1273
VWidth: 1872
Flags: HMW
AnchorPoint: "bottom" 511 0 basechar 0
AnchorPoint: "top" 782 1050 basechar 0
AnchorPoint: "ogonek" 916 0 basechar 0
LayerCount: 2
Fore
SplineSet
691 408 m 5
 626 125 547 -34 308 -34 c 0
 59 -34 -71 104 6 436 c 2
 47 614 l 2
 119 926 295 1084 594 1084 c 0
 863 1084 885 926 820 643 c 1
 721 575 l 1
 752 711 729 753 665 753 c 0
 591 753 545 702 520 595 c 2
 488 455 l 2
 463 348 486 297 560 297 c 0
 624 297 673 368 698 475 c 1
 691 408 l 5
1203 252 m 2
 1147 10 l 2
 1145 3 1143 1 1136 -1 c 0
 749 -97 598 43 667 343 c 2
 757 733 l 1
 1172 1074 l 2
 1181 1081 1194 1084 1201 1084 c 2
 1306 1084 l 2
 1313 1084 1316 1081 1314 1074 c 2
 1152 371 l 2
 1128 266 1159 263 1196 261 c 0
 1202 261 1205 259 1203 252 c 2
EndSplineSet
EndChar

StartChar: b
Encoding: 98 98 39
Width: 1278
VWidth: 1872
Flags: HMW
LayerCount: 2
Fore
SplineSet
273 1450 m 2
 732 1450 l 2
 739 1450 740 1447 738 1440 c 2
 479 317 l 1
 65 -24 l 2
 56 -31 43 -34 36 -34 c 2
 -70 -34 l 2
 -77 -34 -79 -31 -77 -24 c 2
 261 1440 l 2
 263 1447 266 1450 273 1450 c 2
536 641 m 1
 601 924 702 1084 951 1084 c 0
 1210 1084 1353 946 1276 614 c 2
 1235 436 l 2
 1163 124 973 -34 664 -34 c 0
 385 -34 332 124 397 407 c 5
 516 475 l 1
 485 339 521 297 595 297 c 0
 679 297 736 348 761 455 c 2
 793 595 l 2
 818 702 784 753 700 753 c 0
 626 753 564 682 539 575 c 1
 536 641 l 1
EndSplineSet
EndChar

StartChar: c
Encoding: 99 99 40
Width: 1097
VWidth: 1872
Flags: HMW
AnchorPoint: "top" 756 1050 basechar 0
AnchorPoint: "bottom" 520 0 basechar 0
LayerCount: 2
Fore
SplineSet
1061 430 m 0
 1042 364 1014 298 978 242 c 0
 873 77 722 -34 465 -34 c 4
 97 -34 -61 147 6 437 c 2
 47 614 l 2
 114 904 300 1084 668 1084 c 0
 930 1084 1106 990 1106 807 c 0
 1106 752.54818644 1099 689 1076 621 c 0
 1074.36625437 616.16979553 1072 613 1065 613 c 2
 783 613 l 2
 776 613 771.198598813 616.291232851 773 620 c 0
 790 655 798 683.668949879 798 708 c 0
 798 766 747 799 687 799 c 0
 606 799 554 738 520 592 c 2
 489 459 l 2
 457 320 489 251 575 251 c 0
 628 251 678 281 713 330 c 0
 733 358 750 393 760 431 c 0
 761 435 764 438 771 438 c 2
 1054 438 l 2
 1061 438 1062 435 1061 430 c 0
EndSplineSet
EndChar

StartChar: d
Encoding: 100 100 41
Width: 1278
VWidth: 1872
Flags: HMW
LayerCount: 2
Fore
SplineSet
745 408 m 5
 680 125 579 -34 330 -34 c 0
 71 -34 -71 104 6 436 c 2
 47 614 l 2
 124 946 269 1084 528 1084 c 0
 777 1084 864 925 799 642 c 5
 765 575 l 1
 790 682 761 753 687 753 c 0
 603 753 545 702 520 595 c 2
 488 455 l 2
 463 348 498 297 582 297 c 0
 656 297 717 368 742 475 c 1
 745 408 l 5
1442 1440 m 2
 1112 10 l 2
 1110 3 1107 0 1100 0 c 2
 657 0 l 2
 650 0 647 3 649 10 c 2
 696 214 l 1
 689 246 l 1
 964 1440 l 2
 966 1447 970 1450 977 1450 c 2
 1435 1450 l 2
 1442 1450 1444 1447 1442 1440 c 2
EndSplineSet
EndChar

StartChar: e
Encoding: 101 101 42
Width: 1223
VWidth: 1872
Flags: HMW
AnchorPoint: "top" 736 1050 basechar 0
AnchorPoint: "bottom" 513 0 basechar 0
AnchorPoint: "ogonek" 733 60 basechar 0
LayerCount: 2
Fore
SplineSet
1156 333 m 0
 1130 273 1096 222 1054 176 c 0
 928 39 759 -34 516 -34 c 4
 156 -34 -64 134 6 439 c 2
 46 612 l 2
 114 907 353 1084 721 1084 c 0
 1079 1084 1264 893 1227 631 c 0
 1216 558 1212 531 1192 445 c 0
 1191 440 1187 437 1180 437 c 2
 273 437 l 1
 311 603 l 1
 756 603 l 1
 786 755 755 811 684 811 c 0
 619 811 558 760 531 643 c 2
 477 408 l 2
 443 262 482 239 556 239 c 0
 635 239 674 269 700 336 c 0
 702 340 704 342 711 342 c 2
 1150 342 l 2
 1157 342 1158 339 1156 333 c 0
EndSplineSet
EndChar

StartChar: f
Encoding: 102 102 43
Width: 748
VWidth: 1872
Flags: HMW
LayerCount: 2
Fore
SplineSet
797 816 m 2
 87 816 l 2
 80 816 78 819 80 826 c 2
 129 1040 l 2
 131 1047 134 1050 141 1050 c 2
 851 1050 l 2
 858 1050 861 1047 859 1040 c 2
 810 826 l 2
 808 819 804 816 797 816 c 2
281 1188 m 262
 348.635459759 1480.20038514 715 1529 996 1421 c 4
 1004.45214844 1417.75097656 1008.36523438 1412.71582031 1006 1407 c 6
 956 1210 l 6
 953.098632812 1202.98730469 945.413085938 1196.69628906 934 1203 c 4
 762 1298 751.776367188 1182.80761719 723 1058 c 262
 397 -350 l 6
 395.416992188 -356.865234375 392 -360 385 -360 c 6
 -67 -360 l 6
 -74 -360 -76.5845892524 -356.86506555 -75 -350 c 6
 281 1188 l 262
EndSplineSet
EndChar

StartChar: g
Encoding: 103 103 44
Width: 1234
VWidth: 1872
Flags: HMW
AnchorPoint: "top" 729 1100 basechar 0
LayerCount: 2
Fore
SplineSet
1427 1250 m 0
 1369 1061 1168 1043 837 1043 c 1
 814 1072 l 1
 872 1072 944 1131 998 1251 c 0
 1000.5953741 1256.76749801 1004 1260 1011 1260 c 2
 1420 1260 l 2
 1427 1260 1430 1257 1427 1250 c 0
757 332 m 2
 1068 332 1183 175 1133 -41 c 0
 1079 -276 850 -360 470 -360 c 2
 252 -360 l 2
 -69 -360 -203 -263 -167 -107 c 0
 -140 9 46 36 348 36 c 1
 413 8 l 1
 397 8 312 -9 298 -68 c 0
 282 -136 318 -165 434 -165 c 2
 448 -165 l 2
 564 -165 649 -136 663 -77 c 0
 674 -28 649 0 571 0 c 2
 286 0 l 2
 53 0 -103.691307338 120.677326766 -45 298 c 0
 2 440 179 502 413 502 c 1
 401 484 l 1
 343 484 293 452 282 406 c 0
 270 354 459 332 586 332 c 2
 757 332 l 2
791 726 m 2
 798 756 l 2
 808 801 794 840 725 840 c 0
 659 840 626 804 615 756 c 2
 608 726 l 2
 599 688 613 640 679 640 c 0
 748 640 780 680 791 726 c 2
1249 710 m 2
 1205 521 1011 397 653 397 c 0
 295 397 107 561 151 750 c 2
 156 774 l 2
 200 963 393 1084 751 1084 c 0
 1109 1084 1298 923 1254 734 c 2
 1249 710 l 2
EndSplineSet
EndChar

StartChar: h
Encoding: 104 104 45
Width: 1221
VWidth: 1872
Flags: HMW
AnchorPoint: "top" 507 1450 basechar 0
AnchorPoint: "bottom" 509 0 basechar 0
LayerCount: 2
Fore
SplineSet
273 1450 m 2
 732 1450 l 2
 739 1450 740 1447 738 1440 c 2
 408 10 l 2
 406 3 403 0 397 0 c 2
 -62 0 l 2
 -69 0 -71 3 -69 10 c 2
 261 1440 l 2
 263 1447 266 1450 273 1450 c 2
552 712 m 1
 606 946 731 1084 942 1084 c 4
 1163 1084 1282 975 1212 673 c 2
 1059 10 l 2
 1057 3 1055 0 1048 0 c 2
 589 0 l 2
 582 0 580 3 582 10 c 2
 724 624 l 2
 747 722 739 762 684 762 c 0
 629 762 565 692 518 487 c 1
 552 712 l 1
EndSplineSet
EndChar

StartChar: i
Encoding: 105 105 46
Width: 575
VWidth: 1872
Flags: HMW
AnchorPoint: "ogonek" 176 0 basechar 0
AnchorPoint: "bottom" 176 0 basechar 0
LayerCount: 2
Fore
SplineSet
684 1499 m 2
 608 1170 l 2
 606 1163 603 1160 596 1160 c 2
 275 1160 l 2
 268 1160 266 1163 268 1170 c 2
 344 1499 l 2
 346 1506 348 1509 355 1509 c 2
 676 1509 l 2
 683 1509 686 1506 684 1499 c 2
646 1040 m 2
 408 10 l 2
 406 3 404 0 397 0 c 2
 -62 0 l 2
 -69 0 -71 3 -69 10 c 2
 169 1040 l 2
 171 1047 173 1050 180 1050 c 2
 639 1050 l 2
 646 1050 648 1047 646 1040 c 2
EndSplineSet
EndChar

StartChar: j
Encoding: 106 106 47
Width: 575
VWidth: 1872
Flags: HMW
LayerCount: 2
Fore
SplineSet
387 -55 m 6
 310.765625 -383.3203125 100 -430 -84 -430 c 4
 -433 -430 -479 -239 -418 -96 c 4
 -416 -91 -411 -89 -404 -89 c 6
 -203 -89 l 6
 -196 -89 -196 -92 -197 -96 c 4
 -210 -136 -201 -156 -162 -156 c 4
 -114 -156 -90 -84 -66 21 c 6
 169 1040 l 6
 171 1047 173 1050 180 1050 c 6
 634 1050 l 6
 641 1050 642.64453125 1047.08105469 641 1040 c 6
 387 -55 l 6
684 1499 m 6
 608 1170 l 6
 606 1163 603 1160 596 1160 c 6
 275 1160 l 6
 268 1160 266 1163 268 1170 c 6
 344 1499 l 6
 346 1506 348 1509 355 1509 c 6
 676 1509 l 6
 683 1509 686 1506 684 1499 c 6
EndSplineSet
EndChar

StartChar: k
Encoding: 107 107 48
Width: 1302
VWidth: 1872
Flags: HMW
LayerCount: 2
Fore
SplineSet
273 1450 m 6
 732 1450 l 6
 739 1450 740 1447 738 1440 c 6
 408 10 l 6
 406 3 404 0 397 0 c 6
 -62 0 l 6
 -69 0 -71 3 -69 10 c 6
 261 1440 l 6
 263 1447 266 1450 273 1450 c 6
252 461 m 5
 863 1040 l 6
 873 1048 876 1050 884 1050 c 6
 1417 1050 l 6
 1424 1050 1425 1048 1414 1040 c 6
 450 234 l 5
 252 461 l 5
498 650 m 5
 946 708 l 5
 1276 10 l 6
 1279 3 1277 0 1270 0 c 6
 696 0 l 6
 688 0 685 3 683 10 c 6
 498 650 l 5
EndSplineSet
EndChar

StartChar: l
Encoding: 108 108 49
Width: 575
VWidth: 1872
Flags: HMW
LayerCount: 2
Fore
SplineSet
273 1450 m 2
 732 1450 l 2
 739 1450 740 1447 738 1440 c 2
 408 10 l 2
 406 3 403 0 397 0 c 2
 -62 0 l 2
 -69 0 -71 3 -69 10 c 2
 261 1440 l 2
 263 1447 266 1450 273 1450 c 2
EndSplineSet
EndChar

StartChar: m
Encoding: 109 109 50
Width: 1583
VWidth: 1872
Flags: HMW
LayerCount: 2
Fore
SplineSet
990 712 m 5
 1044 946 1160 1084 1352 1084 c 0
 1554 1084 1645 975 1575 673 c 2
 1422 10 l 2
 1420 3 1417 0 1410 0 c 2
 972 0 l 2
 965 0 962 3 964 10 c 2
 1106 625 l 2
 1128 721 1130 762 1094 762 c 0
 1058 762 1024 694 977 489 c 1
 990 712 l 5
180 1050 m 2
 610 1050 l 2
 617 1050 619 1047 617 1040 c 2
 538 696 l 1
 542 670 l 1
 389 10 l 2
 387 3 384 0 377 0 c 2
 -62 0 l 2
 -69 0 -71 3 -69 10 c 2
 169 1040 l 2
 171 1047 173 1050 180 1050 c 2
522 712 m 1
 576 946 654 1084 836 1084 c 0
 1018 1084 1089 975 1019 673 c 2
 866 10 l 2
 864 3 862 0 855 0 c 2
 494 0 l 2
 487 0 484 3 486 10 c 2
 628 625 l 2
 650 721 652 762 616 762 c 0
 580 762 547 694 500 489 c 1
 522 712 l 1
EndSplineSet
EndChar

StartChar: n
Encoding: 110 110 51
Width: 1221
VWidth: 1872
Flags: HMW
AnchorPoint: "top" 752 1050 basechar 0
AnchorPoint: "bottom" 509 0 basechar 0
LayerCount: 2
Fore
SplineSet
180 1050 m 2
 629 1050 l 2
 636 1050 639 1047 637 1040 c 2
 558 696 l 1
 561 670 l 1
 408 10 l 2
 406 3 404 0 397 0 c 2
 -62 0 l 2
 -69 0 -71 3 -69 10 c 2
 169 1040 l 2
 171 1047 173 1050 180 1050 c 2
542 712 m 5
 596 946 731 1084 942 1084 c 0
 1163 1084 1282 975 1212 673 c 2
 1059 10 l 2
 1057 3 1055 0 1048 0 c 2
 589 0 l 2
 582 0 580 3 582 10 c 2
 724 624 l 2
 747 722 739 762 684 762 c 0
 629 762 565 692 518 487 c 1
 542 712 l 5
EndSplineSet
EndChar

StartChar: o
Encoding: 111 111 52
Width: 1245
VWidth: 1872
Flags: HMW
AnchorPoint: "bottom" 519 0 basechar 0
AnchorPoint: "top" 762.411 1050 basechar 0
LayerCount: 2
Fore
SplineSet
6 449 m 2
 46 622 l 2
 112 907 354 1084 722 1084 c 0
 1090 1084 1307 887 1241 602 c 6
 1201 429 l 6
 1135 144 892 -34 524 -34 c 0
 156 -34 -60 164 6 449 c 2
481 408 m 2
 454 291 473 239 557 239 c 0
 641 239 685 291 712 408 c 2
 766 643 l 2
 793 760 773 811 689 811 c 0
 605 811 562 760 535 643 c 2
 481 408 l 2
EndSplineSet
EndChar

StartChar: p
Encoding: 112 112 53
Width: 1278
VWidth: 1872
Flags: HMW
LayerCount: 2
Fore
SplineSet
516 641 m 1
 581 924 701 1084 950 1084 c 0
 1209 1084 1353 946 1276 614 c 2
 1235 436 l 2
 1158 104 1011 -34 752 -34 c 0
 503 -34 407 126 472 409 c 5
 516 475 l 1
 491 368 521 297 595 297 c 0
 679 297 736 348 761 455 c 2
 793 595 l 2
 818 702 784 753 700 753 c 0
 626 753 564 682 539 575 c 1
 516 641 l 1
-152 -350 m 2
 169 1040 l 2
 171 1047 173 1050 180 1050 c 2
 624 1050 l 2
 631 1050 634 1047 632 1040 c 2
 585 834 l 1
 592 804 l 1
 325 -350 l 2
 323 -357 321 -360 314 -360 c 2
 -145 -360 l 2
 -152 -360 -154 -357 -152 -350 c 2
EndSplineSet
EndChar

StartChar: q
Encoding: 113 113 54
Width: 1297
VWidth: 1872
Flags: HMW
LayerCount: 2
Fore
SplineSet
1017 -360 m 2
 559 -360 l 2
 552 -360 549 -357 551 -350 c 2
 801 733 l 1
 1216 1074 l 2
 1225 1081 1238 1084 1245 1084 c 2
 1350 1084 l 2
 1357 1084 1360 1081 1358 1074 c 2
 1029 -350 l 2
 1027 -357 1024 -360 1017 -360 c 2
745 408 m 5
 680 125 579 -34 330 -34 c 0
 71 -34 -71 104 6 436 c 2
 47 614 l 2
 119 926 307 1084 616 1084 c 0
 895 1084 919 926 854 643 c 1
 765 575 l 1
 796 711 761 753 687 753 c 0
 603 753 545 702 520 595 c 2
 488 455 l 2
 463 348 498 297 582 297 c 0
 656 297 717 368 742 475 c 1
 745 408 l 5
EndSplineSet
EndChar

StartChar: r
Encoding: 114 114 55
Width: 1098
VWidth: 1872
Flags: HMW
AnchorPoint: "bottom" 204 0 basechar 0
AnchorPoint: "top" 597 1050 basechar 0
LayerCount: 2
Fore
SplineSet
531 453 m 1
 558 770 l 1
 632 930 748 1084 910 1084 c 0
 1159 1084 1147 813 1074 620 c 0
 1072 615 1068 613 1061 613 c 2
 680 613 l 2
 673 613 672 616 673 620 c 4
 698 710 695 760 656 760 c 0
 608 760 581 658 531 453 c 1
200 1050 m 2
 624 1050 l 2
 632 1049 632 1046 631 1040 c 2
 560 732 l 25
 593 723 l 25
 428 10 l 18
 426 2 422 0 416 0 c 10
 -42 0 l 18
 -48 0 -51 4 -50 10 c 10
 188 1040 l 2
 189 1046 194 1050 200 1050 c 2
EndSplineSet
EndChar

StartChar: s
Encoding: 115 115 56
Width: 1126
VWidth: 1872
Flags: HMW
AnchorPoint: "bottom" 441 0 basechar 0
AnchorPoint: "top" 644 1050 basechar 0
LayerCount: 2
Fore
SplineSet
-9 360 m 2
 330 360 l 2
 338 360 341 357 340 351 c 0
 335 331 333 316 330 293 c 0
 324 245 373 222 446 222 c 0
 527 222 562 228 572 271 c 0
 602 399 8 376 95 752 c 0
 151 996 325 1084 646 1084 c 0
 957 1084 1136 967 1089 760 c 0
 1087 752 1086 747 1084 738 c 0
 1082 731 1080 729 1073 729 c 2
 743 729 l 2
 736 729 733 732 735 739 c 0
 738 750 739 760 742 771 c 0
 752 823 703 843 627 843 c 0
 559 843 521 830 513 796 c 0
 483 668 1149 715 1048 278 c 0
 993 40 827 -34 466 -34 c 4
 112 -34 -77 68 -36 276 c 0
 -33 293 -25 324 -19 352 c 0
 -17 359 -16 360 -9 360 c 2
EndSplineSet
EndChar

StartChar: t
Encoding: 116 116 57
Width: 792
VWidth: 1872
Flags: HMW
AnchorPoint: "bottom" 439 0 basechar 0
LayerCount: 2
Fore
SplineSet
822 816 m 2
 63 816 l 2
 56 816 54 819 56 826 c 2
 105 1040 l 2
 107 1047 110 1050 117 1050 c 2
 876 1050 l 2
 883 1050 885 1047 883 1040 c 2
 834 826 l 2
 832 819 829 816 822 816 c 2
720 312 m 2
 650 10 l 2
 648 3 645 0 638 -1 c 0
 150 -57 1 43 70 343 c 2
 312 1390 l 6
 314 1397 317 1400 324 1400 c 6
 777 1400 l 6
 784 1400 787 1397 785 1390 c 6
 559 411 l 2
 535 306 612 303 713 321 c 0
 719 322 722 319 720 312 c 2
EndSplineSet
EndChar

StartChar: u
Encoding: 117 117 58
Width: 1221
VWidth: 1872
Flags: HMW
AnchorPoint: "top" 741 1050 basechar 0
AnchorPoint: "bottom" 448 0 basechar 0
AnchorPoint: "ogonek" 834 0 basechar 0
LayerCount: 2
Fore
SplineSet
1043 0 m 2
 594 0 l 2
 587 0 585 3 587 10 c 2
 667 354 l 1
 663 380 l 1
 815 1040 l 2
 817 1047 820 1050 827 1050 c 2
 1285 1050 l 2
 1292 1050 1295 1047 1293 1040 c 2
 1055 10 l 2
 1053 3 1050 0 1043 0 c 2
672 338 m 1
 618 104 492 -34 281 -34 c 4
 60 -34 -59 75 11 377 c 2
 164 1040 l 2
 166 1047 169 1050 176 1050 c 2
 634 1050 l 2
 641 1050 644 1047 642 1040 c 2
 500 426 l 2
 477 328 485 288 540 288 c 0
 595 288 658 358 705 563 c 1
 672 338 l 1
EndSplineSet
EndChar

StartChar: v
Encoding: 118 118 59
Width: 1183
VWidth: 1872
Flags: HMW
LayerCount: 2
Fore
SplineSet
578 337 m 5
 883 1040 l 6
 887 1047 892 1050 899 1050 c 6
 1318 1050 l 2
 1325 1050 1327 1047 1322 1040 c 2
 791 10 l 2
 786 2 783 0 776 0 c 2
 206 0 l 2
 199 0 196 3 195 10 c 2
 91 1040 l 2
 91 1047 92 1050 99 1050 c 2
 586 1050 l 6
 593 1050 596 1047 596 1040 c 6
 578 337 l 5
EndSplineSet
EndChar

StartChar: w
Encoding: 119 119 60
Width: 1486
VWidth: 1872
Flags: HMW
LayerCount: 2
Fore
SplineSet
1048 467 m 5
 1256 1040 l 6
 1260 1047 1262 1050 1269 1050 c 6
 1601 1050 l 2
 1608 1050 1610 1047 1606 1040 c 2
 1190 10 l 2
 1186 3 1182 0 1175 0 c 2
 713 0 l 2
 706 0 702 2 702 10 c 2
 710 363 l 1
 567 10 l 2
 563 2 560 0 553 0 c 2
 81 0 l 2
 74 0 70 2 70 10 c 2
 120 1040 l 2
 120 1047 122 1050 129 1050 c 2
 547 1050 l 6
 554 1050 558 1047 558 1040 c 6
 511 497 l 5
 750 1040 l 6
 754 1047 758 1050 765 1050 c 6
 1052 1050 l 6
 1059 1050 1062 1047 1062 1040 c 6
 1048 467 l 5
EndSplineSet
EndChar

StartChar: x
Encoding: 120 120 61
Width: 1241
VWidth: 1872
Flags: HMW
LayerCount: 2
Fore
SplineSet
266 0 m 2
 -172 0 l 2
 -179 0 -180 3 -173 10 c 2
 327 505 l 1
 90 1040 l 2
 87 1048 88 1050 95 1050 c 2
 678 1050 l 2
 685 1050 688 1048 691 1040 c 2
 737 858 l 1
 887 1040 l 2
 894 1048 897 1050 904 1050 c 2
 1343 1050 l 2
 1350 1050 1351 1047 1344 1040 c 2
 894 618 l 1
 1159 10 l 2
 1162 3 1161 0 1154 0 c 2
 579 0 l 2
 571 0 569 2 566 10 c 2
 488 238 l 1
 284 10 l 2
 278 3 273 0 266 0 c 2
EndSplineSet
EndChar

StartChar: y
Encoding: 121 121 62
Width: 1175
VWidth: 1872
Flags: HMW
AnchorPoint: "top" 739 1050 basechar 0
LayerCount: 2
Fore
SplineSet
599 335 m 1
 906 1040 l 2
 910 1047 914 1050 921 1050 c 2
 1310 1050 l 2
 1317 1050 1317.09570989 1045.94943707 1314 1040 c 2
 943 327 l 2
 725 -90 529 -390 106 -390 c 0
 -243 -390 -239 -199 -178 -56 c 0
 -176 -51 -171 -49 -164 -49 c 2
 67 -49 l 2
 74 -49 74 -52 73 -56 c 0
 60 -96 49 -156 78 -156 c 0
 101 -156 139 -96 193 -15 c 1
 92 1040 l 2
 91 1046 92 1050 99 1050 c 2
 606 1050 l 2
 613 1050 616 1046 617 1040 c 2
 599 335 l 1
EndSplineSet
EndChar

StartChar: z
Encoding: 122 122 63
Width: 1098
VWidth: 1872
Flags: HMW
AnchorPoint: "top" 677 1050 basechar 0
LayerCount: 2
Fore
SplineSet
-157 10 m 2
 464 709 l 1
 114 709 l 2
 106 709 104 710 106 718 c 2
 180 1040 l 2
 182 1048 184 1050 192 1050 c 2
 1232 1050 l 2
 1239 1050 1240 1048 1233 1040 c 2
 605 341 l 5
 1010 341 l 2
 1017 341 1020 339 1018 332 c 2
 943 10 l 2
 941 3 938 0 931 0 c 2
 -157 0 l 2
 -164 0 -165 2 -157 10 c 2
EndSplineSet
EndChar

StartChar: comma
Encoding: 44 44 65
Width: 740
VWidth: 1920
Flags: HMW
LayerCount: 2
Fore
SplineSet
1 -310 m 14
 -97 -310 l 22
 -104 -310 -106 -307 -99 -300 c 14
 165 0 l 261
 5 0 l 6
 -4 0 -5 1 -3 10 c 6
 99 450 l 6
 101 457 104 460 111 460 c 6
 601 460 l 6
 608 460 611 457 609 450 c 6
 510 20 l 6
 508 13 505 9 496 0 c 6
 25 -300 l 22
 16 -306 9 -310 1 -310 c 14
EndSplineSet
EndChar

StartChar: exclam
Encoding: 33 33 67
Width: 740
VWidth: 1920
Flags: HMW
LayerCount: 2
Fore
SplineSet
495 0 m 2
 5 0 l 2
 -2 0 -5 3 -3 10 c 2
 99 450 l 2
 101 457 104 460 111 460 c 2
 601 460 l 2
 608 460 611 457 609 450 c 2
 507 10 l 2
 505 3 502 0 495 0 c 2
187 1050 m 6
 277 1440 l 6
 279 1447 283 1450 290 1450 c 6
 880 1450 l 6
 887 1450 889 1447 887 1440 c 6
 797 1050 l 6
 795 1043 795 1037 792 1030 c 6
 481 540 l 6
 478 533 474 530 467 530 c 6
 277 530 l 6
 270 530 268 533 269 540 c 6
 184 1030 l 6
 185 1037 185 1043 187 1050 c 6
EndSplineSet
EndChar

StartChar: quotesingle
Encoding: 39 39 70
Width: 610
VWidth: 1920
Flags: HMW
LayerCount: 2
Fore
SplineSet
472 830 m 6
 272 830 l 2
 265 830 261 833 262 840 c 2
 220 1160 l 2
 221 1167 220 1173 222 1180 c 2
 276 1410 l 2
 278 1417 281 1420 288 1420 c 2
 738 1420 l 2
 745 1420 748 1417 746 1410 c 2
 692 1180 l 2
 690 1173 689 1167 686 1160 c 2
 486 840 l 6
 483 833 479 830 472 830 c 6
EndSplineSet
EndChar

StartChar: question
Encoding: 63 63 71
Width: 1320
VWidth: 1920
Flags: HMW
LayerCount: 2
Fore
SplineSet
755 0 m 2
 265 0 l 2
 258 0 255 3 257 10 c 2
 359 450 l 2
 361 457 364 460 371 460 c 2
 861 460 l 2
 868 460 871 457 869 450 c 2
 767 10 l 2
 765 3 762 0 755 0 c 2
772 530 m 2
 482 530 l 2
 475 530 473 533 473 539 c 0
 493 811 803 858 839 1013 c 262
 842 1028 l 262
 858 1098 838 1135 781 1135 c 256
 721 1135 673 1075 652 982 c 258
 647 962 l 2
 645 955 642 952 635 952 c 2
 175 952 l 2
 168 952 165 955 167 962 c 2
 188 1052 l 258
 240 1276 485 1485 882 1485 c 256
 1279 1485 1471 1323 1420 1103 c 258
 1414 1078 l 258
 1330 715 928 773 786 538 c 0
 783 533 779 530 772 530 c 2
EndSplineSet
EndChar

StartChar: parenleft
Encoding: 40 40 72
Width: 785
VWidth: 2048
Flags: HMW
LayerCount: 2
Fore
SplineSet
93 838 m 258
 187 1243 550 1561 993 1618 c 0
 1001 1619 1004 1617 1002 1610 c 2
 951 1390 l 2
 949 1383 947 1379 939 1376 c 0
 828 1325 655 1209 562 808 c 258
 477 442 l 258
 384 41 505 -75 592 -126 c 0
 598 -129 600 -133 598 -140 c 2
 547 -360 l 2
 545 -367 542 -369 534 -368 c 0
 117 -311 -99 7 -5 412 c 258
 93 838 l 258
EndSplineSet
EndChar

StartChar: parenright
Encoding: 41 41 73
Width: 785
VWidth: 2048
Flags: HMW
LayerCount: 2
Fore
SplineSet
740 412 m 262
 646 7 284 -311 -159 -368 c 0
 -167 -369 -170 -367 -168 -360 c 2
 -117 -140 l 2
 -115 -133 -113 -129 -105 -126 c 0
 6 -75 179 41 272 442 c 262
 357 808 l 262
 450 1209 329 1325 242 1376 c 0
 236 1379 234 1383 236 1390 c 2
 287 1610 l 2
 289 1617 292 1619 300 1618 c 0
 717 1561 932 1243 838 838 c 262
 740 412 l 262
EndSplineSet
EndChar

StartChar: asterisk
Encoding: 42 42 74
Width: 1287
VWidth: 2048
Flags: HMW
LayerCount: 2
Fore
SplineSet
740 887 m 257
 732 953 l 257
 1122 1266 l 2
 1129 1269 1136 1270 1143 1271 c 2
 1319 1318 l 2
 1326 1319 1330 1317 1330 1310 c 2
 1369 901 l 2
 1369 894 1366 891 1359 888 c 2
 1187 828 l 2
 1180 825 1172 823 1165 822 c 2
 740 887 l 257
702 900 m 257
 767 942 l 257
 1116 736 l 2
 1120 731 1121 725 1123 719 c 2
 1185 576 l 2
 1187 570 1186 566 1179 562 c 2
 772 309 l 2
 765 305 762 306 758 311 c 2
 682 443 l 2
 678 448 676 455 674 461 c 2
 702 900 l 257
712 941 m 257
 760 900 l 257
 584 460 l 2
 580 454 575 449 569 444 c 2
 431 310 l 2
 425 305 421 304 416 308 c 2
 127 561 l 2
 122 565 123 570 127 576 c 2
 253 718 l 2
 257 724 263 729 269 734 c 2
 712 941 l 257
753 953 m 257
 717 886 l 257
 259 820 l 2
 252 821 247 824 242 827 c 2
 96 887 l 2
 91 890 89 893 93 900 c 2
 320 1309 l 2
 324 1316 328 1318 335 1317 c 2
 489 1272 l 2
 496 1271 501 1268 506 1265 c 2
 753 953 l 257
770 920 m 261
 700 920 l 261
 594 1320 l 6
 595 1327 595 1333 598 1340 c 6
 646 1510 l 6
 649 1517 652 1520 659 1520 c 6
 1089 1520 l 6
 1096 1520 1099 1517 1098 1510 c 6
 1066 1340 l 6
 1065 1333 1065 1327 1062 1320 c 6
 770 920 l 261
EndSplineSet
EndChar

StartChar: at
Encoding: 64 64 75
Width: 1990
VWidth: 1920
Flags: HMW
LayerCount: 2
Fore
SplineSet
1154 472 m 257
 1087 182 957 40 690 40 c 256
 473 40 332 157 410 497 c 258
 417 528 l 258
 491 848 701 985 938 985 c 256
 1195 985 1300 843 1233 553 c 257
 1078 533 l 257
 1101 633 1083 695 1006 695 c 256
 939 695 886 653 863 553 c 258
 844 472 l 258
 821 372 855 330 922 330 c 256
 999 330 1046 392 1069 492 c 257
 1154 472 l 257
1153 -255 m 0
 1071 -315 942 -360 782 -360 c 256
 225 -360 -17 13 94 493 c 258
 115 583 l 258
 233 1093 699 1435 1236 1435 c 256
 1843 1435 2006 1024 1916 633 c 258
 1895 543 l 258
 1812 183 1606 40 1379 40 c 256
 1172 40 998 185 1049 405 c 258
 1134 775 l 257
 1463 975 l 2
 1468 980 1475 985 1482 985 c 2
 1612 985 l 2
 1619 985 1622 982 1620 975 c 2
 1519 535 l 258
 1474 341 1488 280 1555 280 c 256
 1612 280 1669 343 1715 543 c 258
 1736 633 l 258
 1814 973 1651 1295 1204 1295 c 256
 797 1295 404 1013 307 593 c 258
 282 483 l 258
 194 103 377 -220 814 -220 c 256
 926 -220 1047 -181 1132 -124 c 0
 1140 -118 1144 -120 1145 -127 c 2
 1161 -237 l 2
 1162 -245 1161 -249 1153 -255 c 0
EndSplineSet
EndChar

StartChar: dollar
Encoding: 36 36 76
Width: 1219
VWidth: 1920
Flags: HMW
LayerCount: 2
Fore
SplineSet
22 488 m 2
 372 488 l 2
 375 488 382 487 380 480 c 2
 371 440 l 2
 345 326 415 285 555 285 c 256
 663 285 702 317 714 368 c 256
 724 412 668 435 574 464 c 256
 298 549 91 615 174 973 c 256
 236 1243 458 1435 820 1435 c 256
 1184 1435 1285 1236 1235 1021 c 2
 1223 971 l 2
 1221 964 1216 963 1211 963 c 2
 881 963 l 2
 876 963 871 964 873 971 c 2
 880 1001 l 2
 893 1056 856 1135 741 1135 c 256
 669 1135 629 1083 620 1043 c 256
 608 992 647 960 772 932 c 256
 1114 855 1244 757 1168 428 c 256
 1095 111 890 -35 451 -35 c 256
 63 -35 -72 123 -8 399 c 2
 11 479 l 2
 13 486 19 488 22 488 c 2
837 1590 m 6
 897 1590 l 6
 904 1590 907 1587 905 1580 c 6
 498 -180 l 6
 496 -187 493 -190 486 -190 c 6
 426 -190 l 6
 419 -190 416 -187 418 -180 c 6
 825 1580 l 6
 827 1587 830 1590 837 1590 c 6
EndSplineSet
EndChar

StartChar: numbersign
Encoding: 35 35 77
Width: 1610
VWidth: 1920
Flags: HMW
LayerCount: 2
Fore
SplineSet
49 690 m 6
 1559 690 l 6
 1566 690 1569 687 1567 680 c 6
 1500 390 l 6
 1498 383 1496 380 1488 380 c 6
 -22 380 l 6
 -29 380 -32 383 -30 390 c 6
 37 680 l 6
 39 687 42 690 49 690 c 6
224 1100 m 2
 1734 1100 l 2
 1741 1100 1744 1097 1742 1090 c 2
 1675 800 l 2
 1673 793 1669 790 1662 790 c 2
 152 790 l 2
 145 790 143 793 145 800 c 2
 212 1090 l 2
 214 1097 217 1100 224 1100 c 2
1233 1400 m 2
 1663 1400 l 2
 1673 1400 1673 1397 1669 1390 c 2
 1024 10 l 2
 1020 3 1020 0 1010 0 c 2
 580 0 l 2
 570 0 570 3 574 10 c 2
 1219 1390 l 2
 1223 1397 1223 1400 1233 1400 c 2
663 1400 m 2
 1093 1400 l 2
 1100 1400 1103 1397 1099 1390 c 2
 454 10 l 2
 450 3 447 0 440 0 c 2
 10 0 l 2
 3 0 0 3 4 10 c 2
 649 1390 l 2
 653 1397 656 1400 663 1400 c 2
EndSplineSet
EndChar

StartChar: slash
Encoding: 47 47 78
Width: 1040
VWidth: 2048
Flags: HMW
LayerCount: 2
Fore
SplineSet
1197 1390 m 6
 238 -90 l 6
 232 -99 229 -100 222 -100 c 6
 -118 -100 l 2
 -125 -100 -128 -99 -122 -90 c 2
 837 1390 l 2
 843 1399 847 1400 853 1400 c 2
 1193 1400 l 6
 1200 1400 1203 1399 1197 1390 c 6
EndSplineSet
EndChar

StartChar: percent
Encoding: 37 37 79
Width: 1855
VWidth: 2048
Flags: HMW
LayerCount: 2
Fore
SplineSet
180 1083 m 262
 188 1118 l 262
 232 1308 419 1435 696 1435 c 260
 973 1435 1112 1308 1068 1118 c 262
 1060 1083 l 262
 1016 893 819 765 542 765 c 260
 265 765 136 893 180 1083 c 262
557 1093 m 262
 539 1013 555 985 592 985 c 260
 629 985 669 1013 687 1093 c 262
 691 1108 l 262
 709 1188 683 1215 646 1215 c 260
 609 1215 579 1188 561 1108 c 262
 557 1093 l 262
870 283 m 262
 878 318 l 262
 922 508 1110 635 1387 635 c 260
 1664 635 1802 508 1758 318 c 262
 1750 283 l 262
 1706 93 1509 -35 1232 -35 c 260
 955 -35 826 93 870 283 c 262
1248 293 m 262
 1230 213 1246 185 1283 185 c 260
 1320 185 1360 213 1378 293 c 262
 1381 308 l 262
 1399 388 1373 415 1336 415 c 260
 1299 415 1269 388 1251 308 c 262
 1248 293 l 262
1980 1390 m 6
 318 10 l 6
 312 3 307 0 300 0 c 6
 -40 0 l 6
 -47 0 -48 3 -42 10 c 6
 1620 1390 l 6
 1626 1397 1631 1400 1638 1400 c 6
 1978 1400 l 6
 1985 1400 1986 1397 1980 1390 c 6
EndSplineSet
EndChar

StartChar: hyphen
Encoding: 45 45 80
Width: 570
VWidth: 1920
Flags: HMW
LayerCount: 2
Fore
SplineSet
23 445 m 10
 100 780 l 22
 102 787 105 790 112 790 c 14
 582 790 l 22
 589 790 592 787 590 780 c 14
 513 445 l 18
 511 438 507 435 500 435 c 10
 30 435 l 18
 23 435 21 438 23 445 c 10
EndSplineSet
EndChar

StartChar: underscore
Encoding: 95 95 81
Width: 900
VWidth: 1920
Flags: HMW
LayerCount: 2
Fore
SplineSet
-200 -345 m 14
 -122 -10 l 18
 -120 -3 -117 0 -110 0 c 10
 770 0 l 18
 777 0 780 -3 778 -10 c 10
 700 -345 l 22
 698 -352 695 -355 688 -355 c 14
 -192 -355 l 22
 -199 -355 -202 -352 -200 -345 c 14
EndSplineSet
EndChar

StartChar: plus
Encoding: 43 43 82
Width: 1040
VWidth: 1920
Flags: HMW
LayerCount: 2
Fore
SplineSet
46 525 m 14
 124 860 l 18
 126 867 129 870 136 870 c 10
 1066 870 l 18
 1073 870 1076 867 1074 860 c 10
 996 525 l 22
 994 518 991 515 984 515 c 14
 54 515 l 22
 47 515 44 518 46 525 c 14
510 1190 m 10
 840 1190 l 18
 847 1190 849 1187 847 1180 c 10
 617 180 l 18
 615 173 611 170 604 170 c 10
 274 170 l 18
 267 170 265 173 267 180 c 10
 497 1180 l 18
 499 1187 503 1190 510 1190 c 10
EndSplineSet
EndChar

StartChar: equal
Encoding: 61 61 83
Width: 1180
VWidth: 1920
Flags: HMW
LayerCount: 2
Fore
SplineSet
52 95 m 14
 129 430 l 22
 131 437 135 440 142 440 c 14
 1002 440 l 22
 1009 440 1011 437 1009 430 c 14
 932 95 l 22
 930 88 927 85 920 85 c 14
 60 85 l 22
 53 85 50 88 52 95 c 14
160 565 m 14
 238 900 l 22
 240 907 243 910 250 910 c 14
 1110 910 l 22
 1117 910 1120 907 1118 900 c 14
 1040 565 l 22
 1038 558 1035 555 1028 555 c 14
 168 555 l 22
 161 555 158 558 160 565 c 14
EndSplineSet
EndChar

StartChar: less
Encoding: 60 60 84
Width: 1010
VWidth: 1920
Flags: HMW
LayerCount: 2
Fore
SplineSet
750 86 m 2
 63 444 l 2
 57 448 54 453 56 460 c 2
 121 740 l 6
 123 747 127 752 135 756 c 6
 987 1114 l 2
 995 1118 998 1117 996 1110 c 2
 913 750 l 2
 911 743 908 738 899 734 c 2
 428 600 l 257
 838 466 l 2
 845 462 846 457 844 450 c 2
 761 90 l 2
 759 83 756 82 750 86 c 2
EndSplineSet
EndChar

StartChar: greater
Encoding: 62 62 85
Width: 1010
VWidth: 1920
Flags: HMW
LayerCount: 2
Fore
SplineSet
297 1114 m 2
 985 756 l 2
 991 752 993 747 991 740 c 2
 926 460 l 2
 924 453 921 448 913 444 c 2
 60 86 l 2
 52 82 49 83 51 90 c 2
 134 450 l 6
 136 457 139 462 148 466 c 6
 620 600 l 257
 209 734 l 2
 202 738 201 743 203 750 c 2
 286 1110 l 2
 288 1117 291 1118 297 1114 c 2
EndSplineSet
EndChar

StartChar: backslash
Encoding: 92 92 86
Width: 1040
VWidth: 2048
Flags: HMW
LayerCount: 2
Fore
SplineSet
880 -90 m 6
 882 -99 879 -100 872 -100 c 6
 532 -100 l 2
 526 -100 522 -99 520 -90 c 2
 245 1390 l 2
 243 1399 246 1400 253 1400 c 2
 593 1400 l 6
 600 1400 603 1399 605 1390 c 6
 880 -90 l 6
EndSplineSet
EndChar

StartChar: bracketleft
Encoding: 91 91 87
Width: 760
VWidth: 1920
Flags: HMW
LayerCount: 2
Fore
SplineSet
662 1350 m 257
 325 -110 l 261
 555 -110 l 6
 562 -110 564 -113 562 -120 c 6
 509 -350 l 2
 507 -357 504 -360 497 -360 c 2
 -123 -360 l 2
 -130 -360 -133 -357 -131 -350 c 2
 317 1590 l 2
 319 1597 322 1600 329 1600 c 2
 949 1600 l 2
 956 1600 959 1597 957 1590 c 2
 904 1360 l 2
 902 1353 899 1350 892 1350 c 2
 662 1350 l 257
EndSplineSet
EndChar

StartChar: braceleft
Encoding: 123 123 88
Width: 775
VWidth: 2048
Flags: HMW
LayerCount: 2
Fore
SplineSet
330 1278 m 258
 382 1505 496 1598 914 1600 c 0
 921 1600 924 1597 922 1590 c 2
 874 1380 l 2
 872 1373 868 1370 860 1370 c 0
 760 1366 713 1312 673 1138 c 258
 631 956 l 258
 588 771 476 668 309 620 c 261
 454 572 519 469 476 284 c 258
 436 112 l 258
 396 -61 418 -114 514 -120 c 0
 524 -121 527 -123 525 -130 c 2
 474 -350 l 2
 472 -357 469 -360 460 -360 c 0
 45 -356 -26 -265 26 -38 c 258
 101 284 l 258
 132 417 108 471 18 502 c 0
 10 505 7 509 9 516 c 2
 57 724 l 2
 59 731 63 735 70 737 c 0
 179 770 225 822 256 956 c 258
 330 1278 l 258
EndSplineSet
EndChar

StartChar: bracketright
Encoding: 93 93 89
Width: 750
VWidth: 1920
Flags: HMW
LayerCount: 2
Fore
SplineSet
145 -110 m 257
 482 1350 l 261
 252 1350 l 6
 245 1350 242 1353 244 1360 c 6
 297 1590 l 2
 299 1597 302 1600 309 1600 c 2
 919 1600 l 2
 926 1600 929 1597 927 1590 c 2
 479 -350 l 2
 477 -357 474 -360 467 -360 c 2
 -143 -360 l 2
 -150 -360 -153 -357 -151 -350 c 2
 -98 -120 l 2
 -96 -113 -92 -110 -85 -110 c 2
 145 -110 l 257
EndSplineSet
EndChar

StartChar: braceright
Encoding: 125 125 90
Width: 775
VWidth: 2048
Flags: HMW
LayerCount: 2
Fore
SplineSet
491 -38 m 258
 439 -265 325 -358 -93 -360 c 0
 -100 -360 -103 -357 -101 -350 c 2
 -50 -130 l 2
 -48 -123 -45 -120 -37 -120 c 0
 63 -116 111 -62 151 112 c 258
 191 284 l 258
 234 469 335 572 502 620 c 261
 357 668 303 771 346 956 c 258
 385 1128 l 258
 425 1301 403 1354 307 1360 c 0
 297 1361 294 1363 296 1370 c 2
 347 1590 l 2
 349 1597 352 1600 361 1600 c 0
 776 1596 847 1505 795 1278 c 258
 721 956 l 258
 690 823 713 769 803 738 c 0
 811 735 814 731 812 724 c 2
 764 516 l 2
 762 509 758 505 751 503 c 0
 642 470 597 418 566 284 c 258
 491 -38 l 258
EndSplineSet
EndChar

StartChar: bar
Encoding: 124 124 91
Width: 515
VWidth: 1920
Flags: HMW
LayerCount: 2
Fore
SplineSet
337 1600 m 10
 677 1600 l 22
 684 1600 687 1597 685 1590 c 14
 237 -350 l 22
 235 -357 232 -360 225 -360 c 14
 -115 -360 l 18
 -122 -360 -125 -357 -123 -350 c 10
 325 1590 l 18
 327 1597 330 1600 337 1600 c 10
EndSplineSet
EndChar

StartChar: asciitilde
Encoding: 126 126 92
Width: 1330
VWidth: 2048
Flags: HMW
LayerCount: 2
Fore
SplineSet
422 519 m 256
 370 519 351 470 336 417 c 0
 335 411 331 408 324 408 c 2
 -16 408 l 2
 -23 408 -25 411 -24 417 c 0
 28 625 164 879 435 879 c 260
 724 879 844 682 946 682 c 256
 998 682 1021 751 1034 793 c 0
 1037 800 1039 803 1046 803 c 2
 1385 803 l 2
 1392 803 1395 800 1393 793 c 0
 1341 585 1216 332 946 332 c 256
 657 332 524 519 422 519 c 256
EndSplineSet
EndChar

StartChar: asciicircum
Encoding: 94 94 93
Width: 820
VWidth: 1920
Flags: HMW
LayerCount: 2
Fore
SplineSet
519 991 m 257
 405 740 l 2
 402 734 396 730 389 730 c 2
 19 730 l 2
 12 730 11 734 15 740 c 2
 437 1390 l 2
 443 1399 446 1400 453 1400 c 2
 773 1400 l 2
 780 1400 783 1399 785 1390 c 2
 907 740 l 2
 909 734 911 730 899 730 c 2
 529 730 l 6
 519 730 518 734 517 740 c 6
 519 991 l 257
EndSplineSet
EndChar

StartChar: figuredash
Encoding: 8210 8210 108
Width: 1150
VWidth: 2048
Flags: HMW
LayerCount: 2
Fore
SplineSet
23 445 m 10
 100 780 l 22
 102 787 105 790 112 790 c 14
 1162 790 l 22
 1169 790 1172 787 1170 780 c 14
 1093 445 l 18
 1091 438 1087 435 1080 435 c 10
 30 435 l 18
 23 435 21 438 23 445 c 10
EndSplineSet
EndChar

StartChar: endash
Encoding: 8211 8211 109
Width: 1100
VWidth: 2048
Flags: HMW
LayerCount: 2
Fore
SplineSet
23 445 m 10
 100 780 l 22
 102 787 105 790 112 790 c 14
 1112 790 l 22
 1119 790 1122 787 1120 780 c 14
 1043 445 l 18
 1041 438 1037 435 1030 435 c 10
 30 435 l 18
 23 435 21 438 23 445 c 10
EndSplineSet
EndChar

StartChar: emdash
Encoding: 8212 8212 110
Width: 2200
VWidth: 2048
Flags: HMW
LayerCount: 2
Fore
SplineSet
23 445 m 14
 100 780 l 18
 102 787 105 790 112 790 c 10
 2212 790 l 18
 2219 790 2222 787 2220 780 c 10
 2143 445 l 22
 2141 438 2137 435 2130 435 c 14
 30 435 l 22
 23 435 21 438 23 445 c 14
EndSplineSet
EndChar

StartChar: uni2015
Encoding: 8213 8213 111
Width: 2360
VWidth: 2048
Flags: HMW
LayerCount: 2
Fore
SplineSet
23 445 m 10
 100 780 l 22
 102 787 105 790 112 790 c 14
 2372 790 l 22
 2379 790 2382 787 2380 780 c 14
 2303 445 l 18
 2301 438 2297 435 2290 435 c 10
 30 435 l 18
 23 435 21 438 23 445 c 10
EndSplineSet
EndChar

StartChar: quoteleft
Encoding: 8216 8216 114
Width: 740
VWidth: 1920
Flags: HMW
LayerCount: 2
Fore
SplineSet
758 1435 m 14
 856 1435 l 22
 863 1435 866 1432 859 1425 c 14
 595 1125 l 261
 755 1125 l 6
 764 1125 764 1124 762 1115 c 6
 661 675 l 6
 659 668 656 665 649 665 c 6
 159 665 l 6
 152 665 149 668 151 675 c 6
 250 1105 l 6
 252 1112 255 1116 264 1125 c 6
 735 1425 l 22
 744 1431 750 1435 758 1435 c 14
EndSplineSet
EndChar

StartChar: quotereversed
Encoding: 8219 8219 117
Width: 740
VWidth: 1920
Flags: HMW
LayerCount: 2
Fore
SplineSet
572 630 m 22
 564 630 561 634 554 640 c 14
 221 940 l 6
 216 949 215 953 217 960 c 6
 316 1390 l 6
 318 1397 321 1400 328 1400 c 6
 818 1400 l 6
 825 1400 828 1397 826 1390 c 6
 724 950 l 6
 722 941 721 940 712 940 c 6
 552 940 l 261
 678 640 l 22
 681 633 677 630 670 630 c 14
 572 630 l 22
EndSplineSet
EndChar

StartChar: bullet
Encoding: 8226 8226 120
Width: 890
VWidth: 2048
Flags: HMW
LayerCount: 2
Fore
SplineSet
150 698 m 262
 150 793 l 262
 150 983 293 1100 490 1100 c 260
 687 1100 840 983 840 793 c 262
 840 698 l 262
 840 508 687 390 490 390 c 260
 293 390 150 508 150 698 c 262
  Spiro
    150 698 [
    150 793 ]
    194.285 956.901 o
    314.447 1062.7 o
    490 1100 o
    668.141 1062.7 o
    793.127 956.901 o
    840 793 [
    840 698 ]
    793.127 533.841 o
    668.141 427.556 o
    490 390 o
    314.447 427.556 o
    194.285 533.841 o
    0 0 z
  EndSpiro
EndSplineSet
EndChar

StartChar: dagger
Encoding: 8224 8224 124
Width: 1330
VWidth: 1920
Flags: HMW
LayerCount: 2
Fore
SplineSet
136 805 m 10
 190 1040 l 18
 192 1047 195 1050 202 1050 c 10
 1372 1050 l 22
 1379 1050 1382 1047 1380 1040 c 14
 1326 805 l 22
 1324 798 1321 795 1314 795 c 14
 144 795 l 18
 137 795 134 798 136 805 c 10
633 1400 m 10
 1103 1400 l 18
 1110 1400 1113 1397 1111 1390 c 10
 792 10 l 18
 790 3 787 0 780 0 c 10
 310 0 l 18
 303 0 300 3 302 10 c 10
 621 1390 l 18
 623 1397 626 1400 633 1400 c 10
EndSplineSet
EndChar

StartChar: daggerdbl
Encoding: 8225 8225 125
Width: 1330
VWidth: 1920
Flags: HMW
LayerCount: 2
Fore
SplineSet
-48 10 m 10
 7 245 l 18
 9 252 12 255 19 255 c 10
 1189 255 l 18
 1196 255 1199 252 1197 245 c 10
 1142 10 l 18
 1140 3 1137 0 1130 0 c 10
 -40 0 l 18
 -47 0 -50 3 -48 10 c 10
136 805 m 10
 190 1040 l 18
 192 1047 195 1050 202 1050 c 10
 1372 1050 l 18
 1379 1050 1382 1047 1380 1040 c 10
 1326 805 l 18
 1324 798 1321 795 1314 795 c 10
 144 795 l 18
 137 795 134 798 136 805 c 10
633 1400 m 10
 1103 1400 l 18
 1110 1400 1113 1397 1111 1390 c 10
 709 -350 l 18
 707 -357 704 -360 697 -360 c 10
 227 -360 l 18
 220 -360 217 -357 219 -350 c 10
 621 1390 l 18
 623 1397 626 1400 633 1400 c 10
EndSplineSet
EndChar

StartChar: perthousand
Encoding: 8240 8240 126
Width: 2785
VWidth: 2048
Flags: HMW
LayerCount: 2
Fore
SplineSet
1800 283 m 262
 1808 318 l 262
 1852 508 2040 635 2317 635 c 260
 2594 635 2732 508 2688 318 c 262
 2680 283 l 262
 2636 93 2439 -35 2162 -35 c 260
 1885 -35 1756 93 1800 283 c 262
2178 293 m 262
 2160 213 2176 185 2213 185 c 260
 2250 185 2290 213 2308 293 c 262
 2311 308 l 262
 2329 388 2303 415 2266 415 c 260
 2229 415 2199 388 2181 308 c 262
 2178 293 l 262
180 1083 m 262
 188 1118 l 262
 232 1308 419 1435 696 1435 c 260
 973 1435 1112 1308 1068 1118 c 262
 1060 1083 l 262
 1016 893 819 765 542 765 c 260
 265 765 136 893 180 1083 c 262
557 1093 m 262
 539 1013 555 985 592 985 c 260
 629 985 669 1013 687 1093 c 262
 691 1108 l 262
 709 1188 683 1215 646 1215 c 260
 609 1215 579 1188 561 1108 c 262
 557 1093 l 262
870 283 m 262
 878 318 l 262
 922 508 1110 635 1387 635 c 260
 1664 635 1802 508 1758 318 c 262
 1750 283 l 262
 1706 93 1509 -35 1232 -35 c 260
 955 -35 826 93 870 283 c 262
1248 293 m 262
 1230 213 1246 185 1283 185 c 260
 1320 185 1360 213 1378 293 c 262
 1381 308 l 262
 1399 388 1373 415 1336 415 c 260
 1299 415 1269 388 1251 308 c 262
 1248 293 l 262
1980 1390 m 6
 318 10 l 6
 312 3 307 0 300 0 c 6
 -40 0 l 6
 -47 0 -48 3 -42 10 c 6
 1620 1390 l 6
 1626 1397 1631 1400 1638 1400 c 6
 1978 1400 l 6
 1985 1400 1986 1397 1980 1390 c 6
EndSplineSet
EndChar

StartChar: uni2031
Encoding: 8241 8241 127
Width: 3715
VWidth: 2048
Flags: HMW
LayerCount: 2
Fore
SplineSet
2730 283 m 262
 2738 318 l 262
 2782 508 2970 635 3247 635 c 260
 3524 635 3662 508 3618 318 c 262
 3610 283 l 262
 3566 93 3369 -35 3092 -35 c 260
 2815 -35 2686 93 2730 283 c 262
3108 293 m 262
 3090 213 3106 185 3143 185 c 260
 3180 185 3220 213 3238 293 c 262
 3241 308 l 262
 3259 388 3233 415 3196 415 c 260
 3159 415 3129 388 3111 308 c 262
 3108 293 l 262
1800 283 m 258
 1808 318 l 258
 1852 508 2040 635 2317 635 c 256
 2594 635 2732 508 2688 318 c 258
 2680 283 l 258
 2636 93 2439 -35 2162 -35 c 256
 1885 -35 1756 93 1800 283 c 258
2178 293 m 258
 2160 213 2176 185 2213 185 c 256
 2250 185 2290 213 2308 293 c 258
 2311 308 l 258
 2329 388 2303 415 2266 415 c 256
 2229 415 2199 388 2181 308 c 258
 2178 293 l 258
180 1083 m 258
 188 1118 l 258
 232 1308 419 1435 696 1435 c 256
 973 1435 1112 1308 1068 1118 c 258
 1060 1083 l 258
 1016 893 819 765 542 765 c 256
 265 765 136 893 180 1083 c 258
557 1093 m 258
 539 1013 555 985 592 985 c 256
 629 985 669 1013 687 1093 c 258
 691 1108 l 258
 709 1188 683 1215 646 1215 c 256
 609 1215 579 1188 561 1108 c 258
 557 1093 l 258
870 283 m 258
 878 318 l 258
 922 508 1110 635 1387 635 c 256
 1664 635 1802 508 1758 318 c 258
 1750 283 l 258
 1706 93 1509 -35 1232 -35 c 256
 955 -35 826 93 870 283 c 258
1248 293 m 258
 1230 213 1246 185 1283 185 c 256
 1320 185 1360 213 1378 293 c 258
 1381 308 l 258
 1399 388 1373 415 1336 415 c 256
 1299 415 1269 388 1251 308 c 258
 1248 293 l 258
1980 1390 m 2
 318 10 l 2
 312 3 307 0 300 0 c 2
 -40 0 l 2
 -47 0 -48 3 -42 10 c 2
 1620 1390 l 2
 1626 1397 1631 1400 1638 1400 c 2
 1978 1400 l 2
 1985 1400 1986 1397 1980 1390 c 2
EndSplineSet
EndChar

StartChar: fraction
Encoding: 8260 8260 128
Width: 930
VWidth: 1920
Flags: HMW
LayerCount: 2
Fore
SplineSet
900 1362 m 10
 1067 1202 l 22
 1072 1198 1072 1194 1067 1188 c 14
 139 92 l 22
 134 86 129 84 124 88 c 14
 -42 248 l 18
 -47 252 -48 256 -43 262 c 10
 886 1358 l 18
 891 1364 895 1366 900 1362 c 10
EndSplineSet
EndChar

StartChar: uni2074
Encoding: 8308 8308 129
Width: 784
VWidth: 1920
Flags: HMW
LayerCount: 2
Fore
SplineSet
888 972 m 2
 843 774 l 2
 842 770 839 768 835 768 c 2
 727 768 l 257
 697 636 l 2
 696 632 693 630 689 630 c 2
 407 630 l 2
 403 630 402 632 403 636 c 2
 433 768 l 257
 73 768 l 2
 69 768 68 770 69 774 c 2
 131 1044 l 2
 132 1048 134 1052 138 1056 c 2
 578 1464 l 2
 581 1467 585 1470 589 1470 c 2
 883 1470 l 2
 887 1470 889 1468 888 1464 c 2
 776 978 l 257
 884 978 l 2
 888 978 889 976 888 972 c 2
488 978 m 257
 543 1218 l 257
 287 978 l 257
 488 978 l 257
EndSplineSet
EndChar

StartChar: uni2073
Encoding: 8307 8307 130
Width: 773
VWidth: 1920
Flags: HMW
LayerCount: 2
Fore
SplineSet
117 934 m 2
 399 934 l 2
 403 934 404 932 403 928 c 2
 402 922 l 2
 385 850 403 819 450 819 c 0
 502 819 536 841 546 883 c 2
 549 898 l 2
 559 940 536 966 478 966 c 2
 430 966 l 2
 426 966 424 968 425 972 c 2
 471 1170 l 2
 472 1174 475 1176 479 1176 c 2
 515 1176 l 2
 555 1176 584 1190 592 1226 c 2
 594 1235 l 2
 600 1259 590 1281 556 1281 c 0
 514 1281 496 1263 487 1225 c 2
 483 1207 l 2
 482 1203 479 1201 475 1201 c 2
 199 1201 l 2
 195 1201 194 1203 195 1207 c 2
 207 1261 l 2
 239 1401 399 1491 607 1491 c 0
 815 1491 934 1418 902 1280 c 2
 898 1265 l 2
 863 1115 702 1062 548 1062 c 1
 567 1092 l 1
 721 1092 875 1033 840 883 c 2
 829 838 l 2
 796 694 634 609 396 609 c 4
 185 609 59 707 100 886 c 6
 109 928 l 2
 110 932 113 934 117 934 c 2
EndSplineSet
EndChar

StartChar: uni2072
Encoding: 8306 8306 131
Width: 762
VWidth: 1920
Flags: HMW
LayerCount: 2
Fore
SplineSet
50 673 m 262
 125 999 562 1055 603 1233 c 262
 603 1236 l 262
 611 1272 593 1288 559 1288 c 260
 517 1288 491 1270 484 1238 c 262
 471 1184 l 6
 470 1180 468 1178 464 1178 c 6
 188 1178 l 6
 184 1178 182 1180 183 1184 c 6
 196 1238 l 262
 234 1402 380 1498 618 1498 c 260
 814 1498 934 1419 898 1263 c 262
 891 1236 l 262
 833 986 470 956 449 865 c 262
 447 859 l 261
 819 859 l 6
 823 859 825 857 824 853 c 6
 775 643 l 6
 774 639 772 637 768 637 c 6
 48 637 l 6
 44 637 42 639 43 643 c 6
 50 673 l 262
EndSplineSet
EndChar

StartChar: uni2070
Encoding: 8304 8304 132
Width: 800
VWidth: 1920
Flags: HMW
LayerCount: 2
Fore
SplineSet
118 923 m 262
 177 1178 l 262
 222 1374 383 1491 624 1491 c 260
 865 1491 972 1374 927 1178 c 262
 868 923 l 262
 823 727 662 609 421 609 c 260
 180 609 73 727 118 923 c 262
415 935 m 262
 394 846 406 813 468 813 c 260
 530 813 556 846 577 935 c 262
 630 1166 l 262
 651 1255 639 1287 577 1287 c 260
 515 1287 489 1255 468 1166 c 262
 415 935 l 262
EndSplineSet
EndChar

StartChar: uni2075
Encoding: 8309 8309 133
Width: 769
VWidth: 1920
Flags: HMW
LayerCount: 2
Fore
SplineSet
118 874 m 2
 388 874 l 2
 392 874 392 872 392 868 c 0
 389 822 419 806 447 806 c 0
 488 806 523 836 536 892 c 2
 539 907 l 2
 553 967 539 986 501 986 c 0
 470 986 442 961 423 931 c 0
 420 926 416 925 412 925 c 2
 142 925 l 2
 138 925 136 926 138 931 c 2
 324 1457 l 2
 326 1461 329 1463 333 1463 c 2
 921 1463 l 2
 925 1463 926 1461 925 1457 c 2
 905 1370 l 2
 888 1298 848 1253 716 1253 c 2
 497 1253 l 5
 416 1070 l 1
 403 1070 l 1
 453 1144 570 1196 666 1196 c 0
 810 1196 884 1127 839 931 c 2
 830 892 l 2
 785 696 640 602 394 602 c 0
 194 602 77 684 110 868 c 0
 111 872 114 874 118 874 c 2
EndSplineSet
EndChar

StartChar: uni2076
Encoding: 8310 8310 134
Width: 843
VWidth: 1920
Flags: HMW
LayerCount: 2
Fore
SplineSet
544 1014 m 260
 478 1014 435 981 423 931 c 262
 415 895 l 261
 372 943 l 261
 408 1101 503 1164 681 1164 c 260
 877 1164 940 1068 902 904 c 262
 895 874 l 262
 856 707 685 609 450 609 c 260
 164 609 85 730 135 946 c 262
 179 1136 l 262
 232 1364 392 1491 648 1491 c 260
 886 1491 973 1359 948 1249 c 262
 944 1231 l 6
 943 1227 941 1225 937 1225 c 6
 667 1225 l 6
 663 1225 661 1227 662 1231 c 6
 664 1237 l 262
 669 1257 660 1281 612 1281 c 260
 536 1281 491 1223 470 1133 c 262
 417 907 l 262
 405 853 428 819 492 819 c 260
 563 819 597 856 608 904 c 262
 610 916 l 262
 622 966 610 1014 544 1014 c 260
EndSplineSet
EndChar

StartChar: uni2077
Encoding: 8311 8311 135
Width: 719
VWidth: 1920
Flags: HMW
LayerCount: 2
Fore
SplineSet
966 1464 m 2
 522 636 l 2
 519 632 516 630 512 630 c 2
 158 630 l 2
 154 630 153 632 156 636 c 2
 602 1200 l 261
 200 1200 l 2
 196 1200 194 1202 195 1206 c 2
 255 1464 l 2
 256 1468 258 1470 262 1470 c 2
 964 1470 l 2
 968 1470 969 1468 966 1464 c 2
EndSplineSet
EndChar

StartChar: uni2078
Encoding: 8312 8312 136
Width: 816
VWidth: 1920
Flags: HMW
LayerCount: 2
Fore
SplineSet
476 816 m 256
 530 816 564 843 575 889 c 258
 576 892 l 258
 587 938 565 966 511 966 c 256
 457 966 423 938 412 892 c 258
 411 889 l 258
 400 843 422 816 476 816 c 256
560 1176 m 256
 590 1176 616 1199 624 1232 c 258
 625 1235 l 258
 631 1263 613 1284 584 1284 c 256
 555 1284 527 1263 521 1235 c 258
 520 1232 l 258
 512 1199 530 1176 560 1176 c 256
558 1086 m 257
 816 1086 896 1004 864 865 c 258
 857 838 l 258
 823 690 704 609 429 609 c 256
 184 609 71 690 105 838 c 258
 112 865 l 258
 144 1004 292 1086 520 1086 c 257
 516 1062 l 257
 297 1065 203 1132 234 1265 c 258
 238 1280 l 258
 269 1413 411 1491 632 1491 c 256
 883 1491 961 1413 930 1280 c 258
 926 1265 l 258
 895 1132 801 1065 550 1062 c 257
 558 1086 l 257
EndSplineSet
EndChar

StartChar: uni2079
Encoding: 8313 8313 137
Width: 843
VWidth: 1920
Flags: HMW
LayerCount: 2
Fore
SplineSet
544 1086 m 256
 610 1086 653 1119 665 1169 c 258
 673 1205 l 257
 716 1157 l 257
 680 999 585 936 407 936 c 256
 211 936 148 1032 186 1196 c 258
 193 1226 l 258
 232 1393 403 1491 638 1491 c 256
 924 1491 1002 1370 952 1154 c 258
 909 964 l 258
 856 736 684 609 422 609 c 260
 166 609 73 723 103 851 c 262
 108 869 l 6
 109 873 111 875 115 875 c 6
 385 875 l 6
 389 875 391 873 390 869 c 6
 388 863 l 262
 382 837 410 819 458 819 c 256
 534 819 594 865 618 967 c 262
 670 1193 l 258
 682 1247 660 1281 596 1281 c 256
 525 1281 491 1244 480 1196 c 258
 477 1184 l 258
 465 1134 478 1086 544 1086 c 256
EndSplineSet
EndChar

StartChar: uni00B9
Encoding: 185 185 138
Width: 368
VWidth: 1920
Flags: HMW
LayerCount: 2
Fore
SplineSet
255 1435 m 4
 340 1436 376 1460 392 1504 c 4
 394 1508 398 1510 402 1510 c 6
 554 1510 l 6
 558 1510 559 1508 558 1504 c 6
 360 646 l 6
 359 642 357 640 353 640 c 6
 71 640 l 6
 67 640 65 642 66 646 c 6
 247 1428 l 6
 248 1432 250 1435 255 1435 c 4
EndSplineSet
EndChar

StartChar: cent
Encoding: 162 162 154
Width: 1097
VWidth: 1920
Flags: HMW
LayerCount: 2
Fore
SplineSet
796 1240 m 6
 856 1240 l 6
 863 1240 866 1237 864 1230 c 6
 538 -180 l 6
 536 -187 533 -190 526 -190 c 6
 466 -190 l 6
 459 -190 456 -187 458 -180 c 6
 784 1230 l 6
 786 1237 789 1240 796 1240 c 6
EndSplineSet
Refer: 40 99 N 1 0 0 1 0 0 2
EndChar

StartChar: uni203D
Encoding: 8253 8253 157
Width: 1640
VWidth: 1920
Flags: HMW
LayerCount: 2
Fore
SplineSet
677 830 m 2
 723 1030 l 2
 725 1037 728 1040 735 1040 c 2
 1125 1040 l 2
 1132 1040 1135 1037 1133 1030 c 2
 1087 830 l 2
 1085 823 1084 817 1081 810 c 2
 921 540 l 2
 918 533 914 530 907 530 c 2
 717 530 l 2
 710 530 708 533 709 540 c 2
 673 810 l 2
 674 817 675 823 677 830 c 2
1015 0 m 2
 525 0 l 2
 518 0 515 3 517 10 c 2
 619 450 l 2
 621 457 624 460 631 460 c 2
 1121 460 l 2
 1128 460 1131 457 1129 450 c 2
 1027 10 l 2
 1025 3 1022 0 1015 0 c 2
1032 530 m 2
 742 530 l 2
 735 530 733 533 733 539 c 0
 753 811 1121 848 1152 983 c 258
 1155 998 l 258
 1167 1048 1136 1085 949 1085 c 256
 739 1085 664 1035 652 982 c 258
 647 962 l 2
 645 955 642 952 635 952 c 2
 175 952 l 2
 168 952 165 955 167 962 c 2
 188 1052 l 258
 240 1276 523 1435 1070 1435 c 256
 1547 1435 1791 1323 1740 1103 c 258
 1734 1078 l 258
 1650 715 1188 773 1046 538 c 0
 1043 533 1039 530 1032 530 c 2
EndSplineSet
EndChar

StartChar: ordfeminine
Encoding: 170 170 159
Width: 948
VWidth: 1920
Flags: HMW
LayerCount: 2
Fore
SplineSet
475 892 m 0
 466 854 478 821 527 821 c 256
 577 821 609 865 625 933 c 257
 679 827 l 257
 651 705 507 609 338 609 c 256
 164 609 65 693 102 852 c 0
 147 1047 334 1115 544 1139 c 256
 657 1152 681 1175 687 1201 c 257
 670 1023 l 257
 661 985 608 973 568 964 c 256
 516 952 484 930 475 892 c 0
588 769 m 258
 692 1221 l 258
 698 1245 681 1271 642 1271 c 256
 601 1271 579 1253 570 1222 c 0
 569 1218 567 1217 563 1217 c 2
 263 1217 l 2
 259 1217 256 1218 258 1222 c 0
 310 1362 477 1489 734 1489 c 260
 1020 1489 1085 1375 1048 1214 c 258
 946 769 l 258
 933 712 936 673 952 648 c 0
 954 645 953 644 949 644 c 2
 619 644 l 2
 615 644 613 646 611 648 c 0
 595 674 575 712 588 769 c 258
EndSplineSet
EndChar

StartChar: exclamdown
Encoding: 161 161 160
Width: 740
VWidth: 1920
Flags: HMW
LayerCount: 2
Fore
SplineSet
247 1050 m 6
 737 1050 l 6
 744 1050 747 1047 745 1040 c 6
 644 600 l 6
 642 593 638 590 631 590 c 6
 141 590 l 6
 134 590 132 593 134 600 c 6
 235 1040 l 6
 237 1047 240 1050 247 1050 c 6
555 0 m 6
 465 -390 l 6
 463 -397 460 -400 453 -400 c 6
 -137 -400 l 6
 -144 -400 -147 -397 -145 -390 c 6
 -55 0 l 6
 -53 7 -52 13 -49 20 c 6
 262 510 l 6
 265 517 268 520 275 520 c 6
 465 520 l 6
 472 520 475 517 474 510 c 6
 559 20 l 6
 558 13 557 7 555 0 c 6
EndSplineSet
EndChar

StartChar: AE
Encoding: 198 198 161
Width: 2268
VWidth: 1920
Flags: HMW
LayerCount: 2
Fore
SplineSet
488 570 m 257
 1158 570 l 257
 1158 320 l 257
 488 320 l 257
 488 570 l 257
1506 1400 m 5
 273 10 l 6
 268 4 265 0 258 0 c 6
 -132 0 l 6
 -139 0 -141 5 -137 10 c 6
 1091 1390 l 6
 1095 1395 1099 1400 1106 1400 c 6
 1506 1400 l 5
EndSplineSet
Refer: 16 69 N 1 0 0 1 958 0 2
EndChar

StartChar: questiondown
Encoding: 191 191 162
Width: 1320
VWidth: 1920
Flags: HMW
LayerCount: 2
Fore
SplineSet
567 1050 m 6
 1057 1050 l 6
 1064 1050 1067 1047 1065 1040 c 6
 964 600 l 6
 962 593 958 590 951 590 c 6
 461 590 l 6
 454 590 452 593 454 600 c 6
 555 1040 l 6
 557 1047 560 1050 567 1050 c 6
550 520 m 6
 840 520 l 6
 847 520 849 517 849 511 c 4
 829 239 521 202 490 67 c 262
 487 52 l 262
 475 2 496 -35 553 -35 c 260
 613 -35 659 15 671 68 c 262
 675 88 l 6
 677 95 681 98 688 98 c 6
 1148 98 l 6
 1155 98 1157 95 1155 88 c 6
 1135 -2 l 262
 1083 -226 849 -385 452 -385 c 260
 55 -385 -148 -273 -97 -53 c 262
 -91 -28 l 262
 -7 335 394 277 536 512 c 4
 539 517 543 520 550 520 c 6
EndSplineSet
EndChar

StartChar: yen
Encoding: 165 165 163
Width: 1447
VWidth: 1920
Flags: HMW
LayerCount: 2
Fore
SplineSet
91 285 m 14
 115 390 l 22
 117 397 120 400 127 400 c 14
 1297 400 l 22
 1304 400 1307 397 1305 390 c 14
 1281 285 l 22
 1279 278 1275 275 1268 275 c 14
 98 275 l 22
 91 275 89 278 91 285 c 14
153 555 m 14
 177 660 l 22
 179 667 183 670 190 670 c 14
 1360 670 l 22
 1367 670 1369 667 1367 660 c 14
 1343 555 l 22
 1341 548 1338 545 1331 545 c 14
 161 545 l 22
 154 545 151 548 153 555 c 14
EndSplineSet
Refer: 36 89 N 1 0 0 1 0 0 2
EndChar

StartChar: gravecomb
Encoding: 768 768 164
Width: 0
Flags: HMW
AnchorPoint: "top" -563 1000 mark 0
LayerCount: 2
Fore
SplineSet
-419 1104 m 6
 -669 1104 l 6
 -676 1104 -683 1109 -687 1114 c 6
 -998 1390 l 6
 -1002 1395 -1003 1400 -996 1400 c 6
 -436 1400 l 6
 -429 1400 -424 1397 -422 1390 c 6
 -413 1114 l 6
 -411 1107 -412 1104 -419 1104 c 6
EndSplineSet
EndChar

StartChar: acutecomb
Encoding: 769 769 165
Width: 0
Flags: HMW
AnchorPoint: "top" -548 1000 mark 0
LayerCount: 2
Fore
SplineSet
-632 1104 m 6
 -639 1104 -640 1107 -634 1114 c 6
 -497 1390 l 6
 -491 1397 -486 1400 -479 1400 c 6
 81 1400 l 6
 88 1400 85 1395 79 1390 c 6
 -360 1114 l 6
 -366 1109 -375 1104 -382 1104 c 6
 -632 1104 l 6
EndSplineSet
EndChar

StartChar: uni0302
Encoding: 770 770 166
Width: 0
VWidth: 1920
Flags: HMW
AnchorPoint: "top" -559 1000 mark 0
LayerCount: 2
Fore
SplineSet
-485 1191 m 261
 -550 1110 l 6
 -555 1105 -564 1100 -571 1100 c 6
 -876 1100 l 6
 -883 1100 -885 1104 -880 1110 c 6
 -633 1390 l 6
 -626 1398 -624 1400 -617 1400 c 6
 -257 1400 l 6
 -250 1400 -248 1398 -245 1390 c 6
 -118 1110 l 6
 -115 1104 -114 1100 -126 1100 c 6
 -431 1100 l 6
 -441 1100 -445 1105 -448 1110 c 6
 -485 1191 l 261
EndSplineSet
EndChar

StartChar: tildecomb
Encoding: 771 771 167
Width: 0
Flags: HMW
AnchorPoint: "top" -578 1000 mark 0
LayerCount: 2
Fore
SplineSet
-593 1189 m 260
 -635 1189 -661 1150 -672 1117 c 4
 -674 1111 -677 1108 -684 1108 c 6
 -884 1108 l 6
 -891 1108 -893 1111 -892 1117 c 4
 -833 1355 -699 1429 -608 1429 c 260
 -479 1429 -448 1322 -396 1322 c 260
 -354 1322 -327 1361 -317 1393 c 4
 -314 1400 -312 1403 -305 1403 c 6
 -106 1403 l 6
 -99 1403 -96 1400 -98 1393 c 4
 -157 1155 -291 1082 -381 1082 c 260
 -510 1082 -541 1189 -593 1189 c 260
EndSplineSet
EndChar

StartChar: uni0304
Encoding: 772 772 168
Width: 0
VWidth: 1920
Flags: HMW
AnchorPoint: "top" -560 1000 mark 0
LayerCount: 2
Fore
SplineSet
-795 1105 m 14
 -745 1320 l 22
 -743 1327 -740 1330 -733 1330 c 14
 -213 1330 l 22
 -206 1330 -203 1327 -205 1320 c 14
 -255 1105 l 22
 -257 1098 -260 1095 -267 1095 c 14
 -787 1095 l 22
 -794 1095 -797 1098 -795 1105 c 14
EndSplineSet
EndChar

StartChar: uni0306
Encoding: 774 774 169
Width: 0
VWidth: 1920
Flags: HMW
AnchorPoint: "top" -560 1000 mark 0
LayerCount: 2
Fore
SplineSet
-445 1365 m 4
 -385 1365 -363 1399 -356 1427 c 4
 -354 1435 -350 1438 -343 1438 c 6
 -78 1438 l 6
 -71 1438 -68 1435 -71 1424 c 4
 -121 1242 -244 1095 -507 1095 c 4
 -770 1095 -827 1243 -791 1427 c 4
 -789 1435 -785 1438 -778 1438 c 6
 -513 1438 l 6
 -506 1438 -504 1435 -506 1425 c 4
 -512 1395 -503 1365 -445 1365 c 4
EndSplineSet
EndChar

StartChar: uni0307
Encoding: 775 775 170
Width: 0
Flags: HMW
AnchorPoint: "top" -548 950 mark 0
LayerCount: 2
Fore
SplineSet
-315 1040 m 6
 -705 1040 l 6
 -712 1040 -715 1043 -713 1050 c 6
 -634 1390 l 6
 -632 1397 -629 1400 -622 1400 c 6
 -232 1400 l 6
 -225 1400 -222 1397 -224 1390 c 6
 -303 1050 l 6
 -305 1043 -308 1040 -315 1040 c 6
EndSplineSet
EndChar

StartChar: uni0308
Encoding: 776 776 171
Width: 0
Flags: HMW
AnchorPoint: "top" -548 950 mark 0
LayerCount: 2
Fore
SplineSet
-605 1040 m 6
 -895 1040 l 6
 -902 1040 -905 1043 -903 1050 c 6
 -824 1390 l 6
 -822 1397 -819 1400 -812 1400 c 6
 -522 1400 l 6
 -515 1400 -512 1397 -514 1390 c 6
 -593 1050 l 6
 -595 1043 -598 1040 -605 1040 c 6
-155 1040 m 6
 -445 1040 l 6
 -452 1040 -455 1043 -453 1050 c 6
 -374 1390 l 6
 -372 1397 -369 1400 -362 1400 c 6
 -72 1400 l 6
 -65 1400 -62 1397 -64 1390 c 6
 -143 1050 l 6
 -145 1043 -148 1040 -155 1040 c 6
EndSplineSet
EndChar

StartChar: uni030A
Encoding: 778 778 172
Width: 0
Flags: HMW
AnchorPoint: "top" -554 1000 mark 0
LayerCount: 2
Fore
SplineSet
-360 1312 m 0
 -360 1208 -450 1122 -554 1122 c 0
 -660 1122 -750 1206 -750 1312 c 0
 -750 1414 -660 1502 -554 1502 c 0
 -448 1502 -360 1420 -360 1312 c 0
-454 1312 m 0
 -454 1368 -500 1407 -554 1407 c 0
 -608 1407 -654 1362 -654 1312 c 0
 -654 1258 -608 1217 -554 1217 c 0
 -502 1217 -454 1262 -454 1312 c 0
EndSplineSet
EndChar

StartChar: uni030B
Encoding: 779 779 173
Width: 0
Flags: HMW
AnchorPoint: "top" -618 1000 mark 0
LayerCount: 2
Fore
SplineSet
-452 1104 m 6
 -459 1104 -460 1107 -454 1114 c 6
 -317 1390 l 6
 -311 1397 -306 1400 -299 1400 c 6
 261 1400 l 6
 268 1400 265 1395 259 1390 c 6
 -180 1114 l 6
 -186 1109 -195 1104 -202 1104 c 6
 -452 1104 l 6
-962 1104 m 6
 -969 1104 -970 1107 -964 1114 c 6
 -827 1390 l 6
 -821 1397 -816 1400 -809 1400 c 6
 -329 1400 l 6
 -322 1400 -325 1395 -331 1390 c 6
 -690 1114 l 6
 -696 1109 -705 1104 -712 1104 c 6
 -962 1104 l 6
EndSplineSet
EndChar

StartChar: uni030C
Encoding: 780 780 174
Width: 0
Flags: HMW
AnchorPoint: "top" -554 1000 mark 0
LayerCount: 2
Fore
SplineSet
-457 1329 m 261
 -392 1410 l 6
 -387 1415 -378 1420 -371 1420 c 6
 -66 1420 l 6
 -59 1420 -57 1416 -62 1410 c 6
 -309 1130 l 6
 -316 1122 -318 1120 -325 1120 c 6
 -685 1120 l 6
 -692 1120 -694 1122 -697 1130 c 6
 -824 1410 l 6
 -827 1416 -828 1420 -816 1420 c 6
 -511 1420 l 6
 -501 1420 -497 1415 -494 1410 c 6
 -457 1329 l 261
EndSplineSet
EndChar

StartChar: uni030F
Encoding: 783 783 175
Width: 0
Flags: HMW
AnchorPoint: "top" -508 1000 mark 0
LayerCount: 2
Fore
SplineSet
-99 1104 m 6
 -349 1104 l 6
 -356 1104 -363 1109 -367 1114 c 6
 -578 1390 l 6
 -582 1395 -583 1400 -576 1400 c 6
 -116 1400 l 6
 -109 1400 -104 1397 -102 1390 c 6
 -93 1114 l 6
 -91 1107 -92 1104 -99 1104 c 6
-589 1104 m 6
 -839 1104 l 6
 -846 1104 -853 1109 -857 1114 c 6
 -1168 1390 l 6
 -1172 1395 -1173 1400 -1166 1400 c 6
 -606 1400 l 6
 -599 1400 -594 1397 -592 1390 c 6
 -583 1114 l 6
 -581 1107 -582 1104 -589 1104 c 6
EndSplineSet
EndChar

StartChar: uni0311
Encoding: 785 785 176
Width: 0
Flags: HMW
AnchorPoint: "top" -604 1000 mark 0
LayerCount: 2
Fore
SplineSet
-537 1245 m 4
 -597 1245 -619 1211 -626 1183 c 4
 -628 1175 -631 1172 -638 1172 c 6
 -903 1172 l 6
 -910 1172 -913 1175 -910 1186 c 4
 -860 1368 -737 1515 -474 1515 c 4
 -211 1515 -155 1367 -191 1183 c 4
 -193 1175 -196 1172 -203 1172 c 6
 -468 1172 l 6
 -475 1172 -477 1175 -475 1185 c 4
 -469 1215 -479 1245 -537 1245 c 4
EndSplineSet
EndChar

StartChar: dotbelowcomb
Encoding: 803 803 177
Width: 0
Flags: HMW
AnchorPoint: "bottom" -551 0 mark 0
LayerCount: 2
Fore
SplineSet
-440 -410 m 6
 -830 -410 l 6
 -837 -410 -839 -407 -837 -400 c 6
 -759 -60 l 6
 -757 -53 -754 -50 -747 -50 c 6
 -357 -50 l 6
 -350 -50 -347 -53 -349 -60 c 6
 -427 -400 l 6
 -429 -407 -433 -410 -440 -410 c 6
EndSplineSet
EndChar

StartChar: uni0326
Encoding: 806 806 178
Width: 0
Flags: HMW
AnchorPoint: "bottom" -561 0 mark 0
LayerCount: 2
Fore
SplineSet
-856 -703 m 14
 -934 -703 l 22
 -940 -703 -941 -701 -936 -695 c 14
 -725 -455 l 261
 -853 -455 l 6
 -860 -455 -861 -454 -859 -447 c 6
 -778 -95 l 6
 -777 -89 -774 -87 -768 -87 c 6
 -376 -87 l 6
 -370 -87 -369 -89 -370 -95 c 6
 -449 -439 l 6
 -450 -445 -453 -448 -461 -455 c 6
 -837 -695 l 22
 -845 -700 -850 -703 -856 -703 c 14
EndSplineSet
EndChar

StartChar: uni0327
Encoding: 807 807 179
Width: 1200
Flags: HMW
AnchorPoint: "bottom" -531 0 mark 0
LayerCount: 2
Fore
SplineSet
-633 -650 m 0
 -772 -650 -868 -636 -921 -601 c 0
 -931 -594 -931 -594 -926 -584 c 2
 -890 -304 l 2
 -885 -294 -886 -296 -876 -299 c 0
 -774 -328 -730 -339 -671 -339 c 0
 -627 -339 -593 -319 -593 -297 c 4
 -593 -281 -601 -241 -780 -240 c 0
 -793 -240 -793 -240 -797 -230 c 2
 -813 -196 l 2
 -817 -187 -814 -183 -809 -176 c 2
 -647 60 l 1
 -305 60 l 1
 -472 -172 l 1
 -456 -167 -440 -164 -425 -164 c 0
 -339 -164 -249 -182 -249 -362 c 0
 -249 -590 -429 -650 -633 -650 c 0
EndSplineSet
EndChar

StartChar: uni0328
Encoding: 808 808 180
Width: 1200
Flags: HMW
AnchorPoint: "ogonek" -551 0 mark 0
LayerCount: 2
Fore
SplineSet
-463 -210 m 6
 -537 -530 l 6
 -539 -537 -543 -540 -550 -540 c 6
 -630 -540 l 6
 -798 -540 -1064 -488 -1016 -280 c 4
 -966 -62 -728 -2 -551 70 c 5
 -505 0 l 5
 -619 -44 -664 -96 -676 -150 c 4
 -686 -192 -661 -200 -541 -200 c 6
 -471 -200 l 6
 -464 -200 -461 -203 -463 -210 c 6
EndSplineSet
EndChar

StartChar: uni0312
Encoding: 786 786 181
Width: 0
Flags: HMW
AnchorPoint: "top" -604 900 mark 0
LayerCount: 2
Fore
SplineSet
-299 1628 m 14
 -221 1628 l 22
 -215 1628 -214 1626 -219 1620 c 14
 -430 1380 l 261
 -302 1380 l 6
 -295 1380 -294 1379 -296 1372 c 6
 -378 1020 l 6
 -379 1014 -381 1012 -387 1012 c 6
 -779 1012 l 6
 -785 1012 -787 1014 -786 1020 c 6
 -706 1364 l 6
 -705 1370 -702 1373 -694 1380 c 6
 -318 1620 l 22
 -310 1625 -305 1628 -299 1628 c 14
EndSplineSet
EndChar

StartChar: sterling
Encoding: 163 163 182
Width: 1420
VWidth: 1920
Flags: HMW
LayerCount: 2
Fore
SplineSet
46 545 m 10
 114 840 l 18
 116 847 119 850 126 850 c 10
 1116 850 l 22
 1123 850 1126 847 1124 840 c 14
 1056 545 l 22
 1054 538 1051 535 1044 535 c 14
 54 535 l 18
 47 535 44 538 46 545 c 10
36 354 m 0
 165 410 306 465 340 614 c 0
 381 792 194 795 251 1043 c 0
 304 1273 589 1435 926 1435 c 0
 1270 1435 1479 1266 1424 971 c 0
 1422 963 1419 963 1412 963 c 2
 962 963 l 2
 955 963 952 963 954 971 c 0
 970 1057 943 1095 868 1095 c 0
 791 1095 735 1063 719 993 c 0
 691 872 855 850 807 644 c 0
 767 472 623 411 491 355 c 1
 1282 355 l 2
 1289 355 1292 352 1290 345 c 2
 1212 10 l 2
 1210 3 1207 0 1200 0 c 2
 -40 0 l 2
 -47 0 -50 3 -48 10 c 2
 30 345 l 2
 31 349 31 352 36 354 c 0
EndSplineSet
EndChar

StartChar: currency
Encoding: 164 164 183
Width: 1112
Flags: HMW
LayerCount: 2
Fore
SplineSet
1062 1274 m 10
 1238 1046 l 18
 1242 1041 1241 1037 1235 1032 c 10
 1035 869 l 18
 1029 864 1025 864 1021 869 c 10
 845 1097 l 18
 841 1102 843 1107 849 1112 c 10
 1048 1274 l 18
 1054 1279 1058 1279 1062 1274 c 10
166 546 m 10
 341 318 l 18
 345 313 344 308 338 303 c 10
 139 141 l 18
 133 136 129 136 125 141 c 10
 -52 369 l 18
 -56 374 -55 378 -49 383 c 10
 152 546 l 18
 158 551 162 551 166 546 c 10
104 1046 m 10
 386 1274 l 18
 392 1279 396 1279 400 1274 c 10
 525 1112 l 18
 529 1107 527 1102 521 1097 c 10
 241 869 l 18
 235 864 231 864 227 869 c 10
 101 1032 l 18
 97 1037 98 1041 104 1046 c 10
665 318 m 10
 860 476 l 18
 866 481 956 551 960 546 c 10
 1085 383 l 18
 1089 378 1088 374 1082 369 c 10
 801 141 l 18
 795 136 791 136 787 141 c 10
 662 303 l 18
 658 308 659 313 665 318 c 10
107 710 m 0
 169 979 441 1200 710 1200 c 0
 979 1200 1149 979 1087 710 c 0
 1025 441 753 220 484 220 c 0
 215 220 45 441 107 710 c 0
467 710 m 0
 446 621 476 570 565 570 c 0
 654 570 706 621 727 710 c 0
 748 799 718 850 629 850 c 0
 540 850 488 799 467 710 c 0
EndSplineSet
EndChar

StartChar: brokenbar
Encoding: 166 166 184
Width: 515
VWidth: 1920
Flags: HMW
LayerCount: 2
Fore
SplineSet
67 430 m 14
 407 430 l 22
 414 430 417 427 415 420 c 14
 237 -350 l 22
 235 -357 232 -360 225 -360 c 14
 -115 -360 l 22
 -122 -360 -125 -357 -123 -350 c 14
 55 420 l 22
 57 427 60 430 67 430 c 14
337 1600 m 14
 677 1600 l 22
 684 1600 687 1597 685 1590 c 14
 507 820 l 22
 505 813 502 810 495 810 c 14
 155 810 l 22
 148 810 145 813 147 820 c 14
 325 1590 l 22
 327 1597 330 1600 337 1600 c 14
EndSplineSet
EndChar

StartChar: section
Encoding: 167 167 185
Width: 1186
VWidth: 1920
Flags: HMW
LayerCount: 2
Fore
SplineSet
609 850 m 257
 534 850 456 786 429 668 c 256
 397 531 448 474 606 371 c 260
 815 235 948 187 895 -43 c 260
 844 -265 638 -400 361 -400 c 260
 107 -400 -7 -267 27 -57 c 4
 28 -51 32 -48 39 -48 c 6
 278 -48 l 6
 285 -48 288 -51 287 -58 c 4
 285 -128 300 -165 363 -165 c 260
 411 -165 453 -140 462 -100 c 260
 471 -62 426 -39 323 12 c 260
 57 143 -24 306 35 563 c 256
 98 835 375 930 639 930 c 257
 609 850 l 257
576 185 m 257
 651 185 729 249 756 367 c 256
 788 504 737 561 579 664 c 256
 370 800 237 848 290 1078 c 256
 341 1300 547 1435 824 1435 c 256
 1078 1435 1192 1302 1158 1092 c 0
 1157 1086 1153 1083 1146 1083 c 2
 907 1083 l 2
 900 1083 897 1086 898 1093 c 0
 900 1163 885 1200 822 1200 c 256
 774 1200 732 1175 723 1135 c 256
 714 1097 759 1074 862 1023 c 256
 1128 892 1209 729 1150 472 c 256
 1087 200 810 105 546 105 c 257
 576 185 l 257
EndSplineSet
EndChar

StartChar: copyright
Encoding: 169 169 186
Width: 1484
Flags: HMW
LayerCount: 2
Fore
SplineSet
1177 609 m 260
 1118 410 964 229 684 229 c 260
 392 229 304 393 357 621 c 262
 380 720 l 262
 433 948 595 1111 887 1111 c 260
 1167 1111 1230 937 1197 774 c 260
 1196 769 1193 768 1189 768 c 262
 980 768 l 262
 976 768 974 769 975 774 c 260
 991 849 958 907 870 907 c 260
 782 907 711 852 682 726 c 262
 656 615 l 262
 626 483 667 433 767 433 c 260
 867 433 932 499 955 609 c 260
 956 614 958 615 962 615 c 262
 1172 615 l 262
 1176 615 1178 614 1177 609 c 260
1473 668 m 0
 1384 284 999 -28 615 -28 c 0
 231 -28 -10 284 79 668 c 0
 168 1052 552 1366 936 1366 c 0
 1320 1366 1562 1052 1473 668 c 0
1387 668 m 0
 1465 1006 1255 1280 917 1280 c 0
 579 1280 243 1006 165 668 c 0
 87 330 296 58 634 58 c 0
 972 58 1309 330 1387 668 c 0
EndSplineSet
EndChar

StartChar: registered
Encoding: 174 174 188
Width: 1484
Flags: HMW
LayerCount: 2
Fore
SplineSet
747 890 m 261
 705 704 l 261
 765 704 l 262
 841 704 867 742 879 796 c 262
 879 798 l 262
 890 846 883 890 807 890 c 262
 747 890 l 261
916 1100 m 262
 1160 1100 1223 987 1191 849 c 262
 1188 835 l 262
 1155 691 998 608 802 608 c 261
 811 644 l 261
 1025 644 1146 627 1113 483 c 262
 1107 457 l 262
 1091 389 1097 338 1116 297 c 4
 1119 290 1119 288 1118 284 c 6
 1113 266 l 6
 1112 262 1110 260 1106 260 c 6
 806 260 l 6
 802 260 800 260 798 265 c 4
 779 324 789 405 801 457 c 262
 807 483 l 262
 818 531 806 554 742 554 c 262
 670 554 l 261
 603 266 l 6
 602 262 600 260 596 260 c 6
 314 260 l 6
 310 260 308 262 309 266 c 6
 501 1094 l 6
 502 1098 504 1100 508 1100 c 6
 916 1100 l 262
1473 668 m 0
 1384 284 999 -28 615 -28 c 0
 231 -28 -10 284 79 668 c 0
 168 1052 552 1366 936 1366 c 0
 1320 1366 1562 1052 1473 668 c 0
1387 668 m 0
 1465 1006 1255 1280 917 1280 c 0
 579 1280 243 1006 165 668 c 0
 87 330 296 58 634 58 c 0
 972 58 1309 330 1387 668 c 0
EndSplineSet
EndChar

StartChar: dotlessi
Encoding: 305 305 279
Width: 590
VWidth: 1920
Flags: HMW
AnchorPoint: "top" 392 1050 basechar 0
LayerCount: 2
Fore
SplineSet
660 1040 m 2
 422 10 l 2
 420 3 417 0 410 0 c 2
 -60 0 l 2
 -67 0 -70 3 -68 10 c 2
 170 1040 l 2
 172 1047 175 1050 182 1050 c 2
 652 1050 l 2
 659 1050 662 1047 660 1040 c 2
EndSplineSet
EndChar

StartChar: uni0237
Encoding: 567 567 291
Width: 575
VWidth: 1872
Flags: HMW
AnchorPoint: "top" 371 1050 basechar 0
LayerCount: 2
Fore
SplineSet
403 15 m 2
 326.76564683 -313.320218483 46 -360 -138 -360 c 0
 -487 -360 -463 -169 -402 -26 c 0
 -400 -21 -395 -19 -388 -19 c 2
 -187 -19 l 2
 -180 -19 -180 -22 -181 -26 c 0
 -194 -66 -185 -86 -146 -86 c 0
 -98 -86 -74 -14 -50 91 c 2
 169 1040 l 2
 171 1047 173 1050 180 1050 c 2
 634 1050 l 2
 641 1050 642.644165218 1047.08096365 641 1040 c 2
 403 15 l 2
EndSplineSet
EndChar

StartChar: kgreenlandic
Encoding: 312 312 298
Width: 1302
VWidth: 1872
Flags: HMW
LayerCount: 2
Fore
SplineSet
181 1050 m 6
 640 1050 l 6
 647 1050 648 1047 646 1040 c 6
 408 10 l 2
 406 3 404 0 397 0 c 2
 -62 0 l 2
 -69 0 -71 3 -69 10 c 2
 169 1040 l 6
 171 1047 174 1050 181 1050 c 6
252 461 m 1
 863 1040 l 2
 873 1048 876 1050 884 1050 c 2
 1417 1050 l 2
 1424 1050 1425 1048 1414 1040 c 2
 450 234 l 1
 252 461 l 1
498 650 m 1
 946 708 l 1
 1276 10 l 2
 1279 3 1277 0 1270 0 c 2
 696 0 l 2
 688 0 685 3 683 10 c 2
 498 650 l 1
EndSplineSet
EndChar

StartChar: grave
Encoding: 96 96 339
Width: 773
VWidth: 0
Flags: HMW
LayerCount: 2
Fore
SplineSet
841 1104 m 6
 591 1104 l 6
 584 1104 577 1109 573 1114 c 6
 262 1390 l 6
 258 1395 257 1400 264 1400 c 6
 824 1400 l 6
 831 1400 836 1397 838 1390 c 6
 847 1114 l 6
 849 1107 848 1104 841 1104 c 6
EndSplineSet
EndChar

StartChar: longs
Encoding: 383 383 352
Width: 748
VWidth: 1872
Flags: HMW
LayerCount: 2
Fore
SplineSet
281 1188 m 258
 348.635459759 1480.20038514 715 1529 996 1421 c 0
 1004.45214844 1417.75097656 1008.36523438 1412.71582031 1006 1407 c 2
 956 1210 l 2
 953.098632812 1202.98730469 945.413085938 1196.69628906 934 1203 c 0
 762 1298 751.776367188 1182.80761719 723 1058 c 258
 397 -350 l 2
 395.416992188 -356.865234375 392 -360 385 -360 c 2
 -67 -360 l 2
 -74 -360 -76.5845892524 -356.86506555 -75 -350 c 2
 281 1188 l 258
EndSplineSet
EndChar

StartChar: uni0259
Encoding: 601 601 359
Width: 1258
VWidth: 1920
Flags: HMW
LayerCount: 2
Fore
SplineSet
71 721 m 0
 176 955 426 1085 757 1085 c 256
 1126 1085 1324 912 1252 602 c 258
 1216 447 l 258
 1147 147 868 -35 491 -35 c 256
 124 -35 -36 161 1 426 c 256
 11 497 16 523 35 607 c 0
 36 612 40 615 47 615 c 2
 981 615 l 257
 942 445 l 257
 482 445 l 257
 454 303 488 245 561 245 c 256
 628 245 691 297 719 417 c 258
 769 632 l 258
 804 782 762 805 685 805 c 256
 603 805 565 776 540 718 c 0
 538 714 534 712 527 712 c 2
 77 712 l 2
 70 712 69 715 71 721 c 0
EndSplineSet
EndChar

StartChar: logicalnot
Encoding: 172 172 373
Width: 1150
VWidth: 2048
Flags: HMW
LayerCount: 2
Fore
SplineSet
77 505 m 6
 154 840 l 6
 156 847 159 850 166 850 c 6
 1146 850 l 2
 1153 850 1156 847 1154 840 c 2
 1035 325 l 2
 1033 318 1030 315 1023 315 c 2
 653 315 l 2
 646 315 643 318 645 325 c 2
 684 495 l 1
 84 495 l 6
 77 495 75 498 77 505 c 6
EndSplineSet
EndChar

StartChar: acute
Encoding: 180 180 374
Width: 773
Flags: HMW
LayerCount: 2
Fore
SplineSet
202 1104 m 2
 195 1104 194 1107 200 1114 c 2
 337 1390 l 2
 343 1397 348 1400 355 1400 c 2
 915 1400 l 2
 922 1400 919 1395 913 1390 c 2
 474 1114 l 2
 468 1109 459 1104 452 1104 c 2
 202 1104 l 2
EndSplineSet
EndChar

StartChar: degree
Encoding: 176 176 376
Width: 980
VWidth: 2048
Flags: HMW
LayerCount: 2
Fore
SplineSet
157 983 m 258
 165 1018 l 258
 225 1278 449 1435 696 1435 c 260
 943 1435 1105 1278 1045 1018 c 258
 1037 983 l 258
 977 723 742 565 495 565 c 260
 248 565 97 723 157 983 c 258
512 983 m 258
 496 913 527 885 574 885 c 256
 621 885 666 913 682 983 c 258
 690 1018 l 258
 706 1088 674 1115 627 1115 c 256
 580 1115 536 1088 520 1018 c 258
 512 983 l 258
EndSplineSet
EndChar

StartChar: plusminus
Encoding: 177 177 377
Width: 1168
Flags: HMW
LayerCount: 2
Fore
SplineSet
10 110 m 10
 88 445 l 18
 90 452 93 455 100 455 c 10
 1030 455 l 18
 1037 455 1040 452 1038 445 c 10
 960 110 l 18
 958 103 955 100 948 100 c 10
 18 100 l 18
 11 100 8 103 10 110 c 10
187 875 m 10
 264 1210 l 18
 266 1217 270 1220 277 1220 c 10
 1207 1220 l 18
 1214 1220 1216 1217 1214 1210 c 10
 1137 875 l 18
 1135 868 1132 865 1125 865 c 10
 195 865 l 18
 188 865 185 868 187 875 c 10
639 1490 m 10
 969 1490 l 22
 976 1490 979 1487 977 1480 c 14
 769 580 l 22
 767 573 764 570 757 570 c 14
 427 570 l 18
 420 570 417 573 419 580 c 10
 627 1480 l 18
 629 1487 632 1490 639 1490 c 10
EndSplineSet
EndChar

StartChar: ae
Encoding: 230 230 379
Width: 1958
VWidth: 1920
Flags: HMW
LayerCount: 2
Fore
SplineSet
470 320 m 0
 455 256 482 235 530 235 c 256
 614 235 681 292 715 438 c 257
 880 328 l 261
 829 105 615 -35 334 -35 c 256
 65 -35 -82 55 -32 270 c 0
 12 461 158 575 507 615 c 256
 696 637 770 675 780 718 c 257
 778 538 l 257
 763 475 691 454 624 440 c 256
 542 424 488 400 470 320 c 0
683 298 m 265
 784 738 l 258
 793 778 780 805 715 805 c 256
 646 805 621 754 606 702 c 0
 605 696 601 693 594 693 c 2
 144 693 l 2
 137 693 135 696 137 702 c 0
 225 935 458 1085 754 1085 c 256
 1054 1085 1166 961 1104 693 c 258
 1013 298 l 273
 683 298 l 265
1889 329 m 0
 1784 95 1554 -35 1253 -35 c 256
 894 -35 766 138 838 448 c 258
 874 603 l 258
 943 903 1172 1085 1499 1085 c 256
 1836 1085 1996 889 1959 624 c 256
 1949 553 1944 527 1925 443 c 0
 1924 438 1920 435 1913 435 c 2
 979 435 l 257
 1019 605 l 257
 1479 605 l 257
 1507 747 1473 805 1400 805 c 256
 1333 805 1269 753 1241 633 c 258
 1192 418 l 258
 1157 268 1199 245 1276 245 c 256
 1358 245 1396 274 1421 332 c 0
 1423 336 1426 338 1433 338 c 2
 1883 338 l 2
 1890 338 1891 335 1889 329 c 0
EndSplineSet
EndChar

StartChar: paragraph
Encoding: 182 182 380
Width: 1510
VWidth: 1920
Flags: HMW
LayerCount: 2
Fore
SplineSet
1453 1075 m 1
 1124 -350 l 2
 1122 -357 1119 -360 1112 -360 c 2
 782 -360 l 2
 775 -360 771 -357 774 -350 c 2
 1103 1075 l 1
 1023 1075 l 1
 694 -350 l 2
 691 -357 689 -360 682 -360 c 2
 362 -360 l 2
 355 -360 352 -357 354 -350 c 2
 527 400 l 1
 517 400 l 6
 260 400 56 548 130 868 c 6
 145 932 l 6
 219 1252 491 1400 748 1400 c 6
 1668 1400 l 2
 1675 1400 1678 1397 1676 1390 c 2
 1605 1085 l 2
 1603 1078 1600 1075 1593 1075 c 2
 1453 1075 l 1
EndSplineSet
EndChar

StartChar: guilsinglleft
Encoding: 8249 8249 381
Width: 630
Flags: HMW
LayerCount: 2
Fore
SplineSet
367 116 m 2
 69 429 l 6
 63 433 61 438 63 445 c 6
 116 675 l 2
 118 682 122 687 130 691 c 2
 565 974 l 2
 573 978 576 977 574 970 c 2
 491 610 l 2
 489 603 486 598 477 594 c 2
 377 555 l 257
 455 496 l 2
 462 492 463 487 461 480 c 2
 378 120 l 2
 376 113 373 112 367 116 c 2
EndSplineSet
EndChar

StartChar: guilsinglright
Encoding: 8250 8250 382
Width: 630
Flags: HW
LayerCount: 2
Fore
SplineSet
275 974 m 2
 575 671 l 6
 581 667 583 662 581 655 c 6
 528 425 l 2
 526 418 522 413 514 409 c 2
 77 116 l 2
 69 112 66 113 68 120 c 2
 151 480 l 2
 153 487 156 492 165 496 c 2
 267 545 l 257
 187 594 l 2
 180 598 179 603 181 610 c 2
 264 970 l 2
 266 977 269 978 275 974 c 2
EndSplineSet
EndChar

StartChar: mu
Encoding: 181 181 385
Width: 1255
VWidth: 1920
Flags: HW
LayerCount: 2
Fore
SplineSet
177 1050 m 2
 647 1050 l 2
 654 1050 657 1047 655 1040 c 2
 334 -350 l 2
 332 -357 329 -360 322 -360 c 2
 -148 -360 l 2
 -155 -360 -158 -357 -156 -350 c 2
 165 1040 l 2
 167 1047 170 1050 177 1050 c 2
1075 0 m 2
 615 0 l 2
 608 0 605 3 607 10 c 2
 689 363 l 257
 685 390 l 257
 835 1040 l 2
 837 1047 840 1050 847 1050 c 2
 1317 1050 l 2
 1324 1050 1327 1047 1325 1040 c 2
 1087 10 l 2
 1085 3 1082 0 1075 0 c 2
725 347 m 257
 670 107 569 -35 422 -35 c 256
 295 -35 232 27 280 237 c 258
 465 1040 l 2
 467 1047 470 1050 477 1050 c 2
 647 1050 l 2
 654 1050 657 1047 655 1040 c 2
 516 437 l 258
 493 337 501 295 558 295 c 256
 615 295 680 367 728 577 c 257
 725 347 l 257
EndSplineSet
EndChar

StartChar: Eth
Encoding: 208 208 387
Width: 1389
VWidth: 1920
Flags: HW
LayerCount: 2
Fore
SplineSet
-74 545 m 14
 3 880 l 22
 5 887 8 890 15 890 c 14
 825 890 l 22
 832 890 835 887 833 880 c 14
 756 545 l 22
 754 538 751 535 744 535 c 14
 -66 535 l 22
 -73 535 -76 538 -74 545 c 14
EndSplineSet
Refer: 15 68 N 1 0 0 1 0 0 2
EndChar

StartChar: Dcroat
Encoding: 272 272 388
Width: 1389
VWidth: 1920
Flags: HW
LayerCount: 2
Fore
SplineSet
-74 545 m 14
 3 880 l 22
 5 887 8 890 15 890 c 14
 825 890 l 22
 832 890 835 887 833 880 c 14
 756 545 l 22
 754 538 751 535 744 535 c 14
 -66 535 l 22
 -73 535 -76 538 -74 545 c 14
EndSplineSet
Refer: 15 68 N 1 0 0 1 0 0 2
EndChar

StartChar: thorn
Encoding: 254 254 389
Width: 1315
VWidth: 1920
Flags: HW
LayerCount: 2
Fore
SplineSet
275 1450 m 2
 745 1450 l 2
 752 1450 754 1447 752 1440 c 2
 339 -350 l 6
 337 -357 334 -360 327 -360 c 6
 -143 -360 l 6
 -150 -360 -153 -357 -151 -350 c 6
 262 1440 l 2
 264 1447 268 1450 275 1450 c 2
506 633 m 257
 573 923 747 1085 1004 1085 c 256
 1271 1085 1387 943 1309 603 c 258
 1273 447 l 258
 1195 107 1013 -35 746 -35 c 256
 489 -35 389 127 456 417 c 257
 532 487 l 257
 507 377 537 305 614 305 c 256
 701 305 763 357 788 467 c 258
 815 583 l 258
 840 693 803 745 716 745 c 256
 639 745 575 673 550 563 c 257
 506 633 l 257
EndSplineSet
EndChar

StartChar: Thorn
Encoding: 222 222 390
Width: 1330
VWidth: 1920
Flags: HW
LayerCount: 2
Fore
SplineSet
868 1160 m 6
 1255 1160 1388 1012 1326 742 c 6
 1312 678 l 6
 1250 408 1047 260 660 260 c 6
 500 260 l 5
 442 10 l 2
 440 3 437 0 430 0 c 2
 -40 0 l 2
 -47 0 -50 3 -48 10 c 2
 271 1390 l 2
 273 1397 276 1400 283 1400 c 2
 753 1400 l 2
 760 1400 763 1397 761 1390 c 2
 708 1160 l 5
 868 1160 l 6
558 510 m 5
 668 510 l 6
 785 510 834 558 855 648 c 6
 860 672 l 6
 881 762 854 810 737 810 c 6
 627 810 l 5
 558 510 l 5
EndSplineSet
EndChar

StartChar: divide
Encoding: 247 247 391
Width: 1380
VWidth: 2048
Flags: HW
LayerCount: 2
Fore
SplineSet
48 575 m 10
 102 810 l 18
 104 817 107 820 114 820 c 10
 1404 820 l 18
 1411 820 1414 817 1412 810 c 10
 1358 575 l 18
 1356 568 1352 565 1345 565 c 10
 55 565 l 18
 48 565 46 568 48 575 c 10
EndSplineSet
Refer: 1 46 S 1 0 0 1 530 920 2
Refer: 1 46 N 1 0 0 1 320 5 2
EndChar

StartChar: multiply
Encoding: 215 215 392
Width: 1060
VWidth: 1920
Flags: HW
LayerCount: 2
Fore
SplineSet
968 487 m 10
 696 266 l 18
 690 261 686 261 682 266 c 10
 176 924 l 18
 172 929 174 933 180 938 c 10
 453 1159 l 18
 459 1164 463 1164 467 1159 c 10
 972 501 l 18
 976 496 974 492 968 487 c 10
246 266 m 14
 75 487 l 18
 71 492 73 496 79 501 c 10
 889 1159 l 18
 895 1164 899 1164 903 1159 c 10
 1073 938 l 22
 1077 933 1075 929 1069 924 c 14
 260 266 l 22
 254 261 250 261 246 266 c 14
EndSplineSet
EndChar

StartChar: Oslash
Encoding: 216 216 393
Width: 1541
VWidth: 1920
Flags: HW
LayerCount: 2
Fore
SplineSet
1219 1486 m 6
 1271 1456 l 6
 1277 1452 1279 1448 1275 1442 c 6
 395 -82 l 6
 391 -88 387 -90 381 -86 c 6
 329 -56 l 6
 323 -52 321 -48 325 -42 c 6
 1205 1482 l 6
 1209 1488 1213 1490 1219 1486 c 6
EndSplineSet
Refer: 26 79 N 1 0 0 1 0 0 2
EndChar

StartChar: oslash
Encoding: 248 248 394
Width: 1245
VWidth: 1920
Flags: HW
LayerCount: 2
Fore
SplineSet
969 1169 m 6
 1021 1139 l 6
 1027 1135 1029 1131 1025 1125 c 6
 315 -105 l 6
 311 -111 307 -113 301 -109 c 6
 249 -79 l 6
 243 -75 241 -71 245 -65 c 6
 955 1165 l 6
 959 1171 963 1173 969 1169 c 6
EndSplineSet
Refer: 52 111 N 1 0 0 1 0 0 2
EndChar

StartChar: germandbls
Encoding: 223 223 396
Width: 1560
VWidth: 1920
Flags: HW
LayerCount: 2
Fore
SplineSet
221 1088 m 2
 300 1432 570 1487 950 1487 c 0
 1363 1487 1502 1342 1463 1175 c 0
 1418 978 1268 935 1240 815 c 0
 1199 636 1565 663 1486 322 c 4
 1423 50 1165 -35 585 -35 c 0
 576 -35 575 -34 577 -25 c 2
 649 285 l 2
 651 294 652 295 661 295 c 0
 896 296 983 309 999 377 c 0
 1027 500 686 537 739 768 c 0
 779 940 928 978 949 1068 c 0
 963 1129 927 1160 855 1160 c 0
 783 1160 716 1131 695 1038 c 2
 457 10 l 2
 455 3 452 0 445 0 c 2
 -20 0 l 2
 -27 0 -30 3 -28 10 c 2
 221 1088 l 2
EndSplineSet
EndChar

StartChar: eth
Encoding: 240 240 397
Width: 1314
VWidth: 1920
Flags: HW
LayerCount: 2
Fore
SplineSet
457 1101 m 10
 437 1185 l 18
 435 1191 438 1195 445 1198 c 10
 1199 1538 l 18
 1206 1541 1209 1540 1211 1534 c 10
 1231 1450 l 18
 1233 1444 1230 1440 1223 1437 c 10
 469 1096 l 18
 462 1093 459 1095 457 1101 c 10
715 785 m 256
 625 785 559 710 519 537 c 258
 510 497 l 258
 471 327 497 265 606 265 c 256
 723 265 763 342 793 472 c 258
 845 698 l 258
 911 984 679 1210 424 1330 c 0
 415 1334 414 1338 420 1345 c 2
 680 1605 l 2
 686 1613 687 1616 699 1610 c 0
 1078 1417 1411 1049 1313 623 c 258
 1293 537 l 258
 1217 207 984 -35 527 -35 c 260
 105 -35 -53 179 11 457 c 258
 36 567 l 258
 99 841 307 1085 604 1085 c 256
 811 1085 922 856 877 662 c 257
 793 472 l 257
 823 602 l 258
 856 745 795 785 715 785 c 256
EndSplineSet
EndChar

StartChar: dcroat
Encoding: 273 273 398
Width: 1278
VWidth: 1920
Flags: HW
LayerCount: 2
Fore
SplineSet
725 1105 m 14
 786 1370 l 22
 788 1377 792 1380 799 1380 c 14
 1649 1380 l 22
 1656 1380 1658 1377 1656 1370 c 14
 1595 1105 l 22
 1593 1098 1590 1095 1583 1095 c 14
 733 1095 l 22
 726 1095 723 1098 725 1105 c 14
EndSplineSet
Refer: 41 100 N 1 0 0 1 0 0 2
EndChar

StartChar: Hbar
Encoding: 294 294 399
Width: 1379
VWidth: 1920
Flags: HW
LayerCount: 2
Fore
SplineSet
72 960 m 14
 144 1275 l 22
 146 1282 150 1285 157 1285 c 14
 1617 1285 l 22
 1624 1285 1626 1282 1624 1275 c 14
 1552 960 l 22
 1550 953 1546 950 1539 950 c 14
 79 950 l 22
 72 950 70 953 72 960 c 14
EndSplineSet
Refer: 19 72 N 1 0 0 1 0 0 2
EndChar

StartChar: hbar
Encoding: 295 295 400
Width: 1221
VWidth: 1920
Flags: HW
LayerCount: 2
Fore
SplineSet
15 1105 m 14
 76 1370 l 22
 78 1377 82 1380 89 1380 c 14
 939 1380 l 22
 946 1380 948 1377 946 1370 c 14
 885 1105 l 22
 883 1098 880 1095 873 1095 c 14
 23 1095 l 22
 16 1095 13 1098 15 1105 c 14
EndSplineSet
Refer: 45 104 N 1 0 0 1 0 0 2
EndChar

StartChar: Lslash
Encoding: 321 321 405
Width: 1101
VWidth: 1920
Flags: HW
LayerCount: 2
Fore
SplineSet
870 1158 m 6
 889 1107 l 6
 892 1101 888 1097 881 1093 c 6
 -46 618 l 6
 -53 614 -56 616 -59 622 c 6
 -78 673 l 6
 -81 679 -77 683 -70 687 c 6
 857 1162 l 6
 864 1166 867 1164 870 1158 c 6
EndSplineSet
Refer: 23 76 N 1 0 0 1 0 0 2
EndChar

StartChar: lslash
Encoding: 322 322 406
Width: 575
VWidth: 1920
Flags: HW
LayerCount: 2
Fore
SplineSet
860 1158 m 6
 879 1107 l 6
 882 1101 878 1097 871 1093 c 6
 -56 618 l 6
 -63 614 -66 616 -69 622 c 6
 -88 673 l 6
 -91 679 -87 683 -80 687 c 6
 847 1162 l 6
 854 1166 857 1164 860 1158 c 6
EndSplineSet
Refer: 49 108 N 1 0 0 1 0 0 2
EndChar

StartChar: eng
Encoding: 331 331 408
Width: 1255
VWidth: 1920
Flags: HW
LayerCount: 2
Fore
SplineSet
182 1050 m 2
 642 1050 l 2
 649 1050 652 1047 650 1040 c 2
 569 687 l 257
 572 660 l 257
 422 10 l 2
 420 3 417 0 410 0 c 2
 -60 0 l 2
 -67 0 -70 3 -68 10 c 2
 170 1040 l 2
 172 1047 175 1050 182 1050 c 2
1090 2 m 6
 1008 -355 732 -378 350 -351 c 0
 342 -350 340 -347 342 -340 c 2
 402 -80 l 2
 404 -73 407 -70 414 -71 c 0
 529 -89 588 -55 617 72 c 2
 742 613 l 2
 765 713 756 755 699 755 c 0
 642 755 577 683 529 473 c 1
 532 703 l 1
 587 943 778 1085 995 1085 c 0
 1222 1085 1315 973 1243 663 c 2
 1090 2 l 6
EndSplineSet
EndChar

StartChar: Eng
Encoding: 330 330 409
Width: 1380
VWidth: 1920
Flags: HW
LayerCount: 2
Fore
SplineSet
1173 1400 m 2
 1523 1400 l 2
 1530 1400 1533 1397 1531 1390 c 2
 1210 2 l 2
 1128 -355 852 -378 470 -351 c 0
 462 -350 460 -347 462 -340 c 2
 522 -80 l 2
 524 -73 527 -70 534 -71 c 0
 649 -89 708 -55 737 72 c 2
 749 127 l 1
 510 910 l 1
 302 10 l 2
 300 3 297 0 290 0 c 2
 -60 0 l 2
 -67 0 -70 3 -68 10 c 2
 251 1390 l 2
 253 1397 256 1400 263 1400 c 2
 853 1400 l 2
 861 1400 864 1398 868 1390 c 2
 1018 769 l 1
 1161 1390 l 2
 1163 1397 1166 1400 1173 1400 c 2
EndSplineSet
EndChar

StartChar: oe
Encoding: 339 339 410
Width: 1998
VWidth: 1920
Flags: HW
LayerCount: 2
Fore
SplineSet
8 448 m 258
 44 603 l 258
 111 893 363 1085 720 1085 c 260
 1097 1085 1191 893 1124 603 c 258
 1088 448 l 258
 1021 158 839 -35 462 -35 c 260
 105 -35 -59 158 8 448 c 258
497 418 m 258
 469 298 490 245 577 245 c 256
 664 245 709 298 737 418 c 258
 786 633 l 258
 814 753 793 805 706 805 c 256
 619 805 574 753 546 633 c 258
 497 418 l 258
1929 329 m 0
 1824 95 1604 -35 1293 -35 c 260
 924 -35 826 138 898 448 c 258
 934 603 l 258
 1003 903 1182 1085 1559 1085 c 260
 1906 1085 2036 889 1999 624 c 256
 1989 553 1984 527 1965 443 c 0
 1964 438 1960 435 1953 435 c 2
 1019 435 l 257
 1059 605 l 257
 1519 605 l 257
 1547 747 1513 805 1440 805 c 256
 1373 805 1309 753 1281 633 c 258
 1232 418 l 258
 1197 268 1239 245 1316 245 c 256
 1398 245 1436 274 1461 332 c 0
 1463 336 1466 338 1473 338 c 2
 1923 338 l 2
 1930 338 1931 335 1929 329 c 0
EndSplineSet
EndChar

StartChar: OE
Encoding: 338 338 411
Width: 2110
VWidth: 1920
Flags: HW
LayerCount: 2
Fore
SplineSet
928 1400 m 262
 1553 1400 l 262
 1560 1400 1563 1397 1561 1390 c 262
 1242 10 l 262
 1240 3 1237 0 1230 0 c 262
 605 0 l 262
 191 0 -17 231 72 617 c 262
 111 782 l 262
 200 1168 474 1400 928 1400 c 262
887 1050 m 262
 733 1050 652 960 613 792 c 262
 570 607 l 262
 531 439 572 350 726 350 c 262
 831 350 l 261
 992 1050 l 261
 887 1050 l 262
EndSplineSet
Refer: 16 69 N 1 0 0 1 800 0 2
EndChar

StartChar: Tbar
Encoding: 358 358 413
Width: 1309
VWidth: 1920
Flags: HW
LayerCount: 2
Fore
SplineSet
235 540 m 14
 284 755 l 22
 286 762 290 765 297 765 c 14
 1167 765 l 22
 1174 765 1176 762 1174 755 c 14
 1125 540 l 22
 1123 533 1119 530 1112 530 c 14
 242 530 l 22
 235 530 233 533 235 540 c 14
EndSplineSet
Refer: 31 84 N 1 0 0 1 0 0 2
EndChar

StartChar: tbar
Encoding: 359 359 414
Width: 792
VWidth: 1920
Flags: HW
LayerCount: 2
Fore
SplineSet
4 470 m 14
 53 685 l 22
 55 692 58 695 65 695 c 14
 745 695 l 22
 752 695 755 692 753 685 c 14
 704 470 l 22
 702 463 698 460 691 460 c 14
 11 460 l 22
 4 460 2 463 4 470 c 14
EndSplineSet
Refer: 57 116 N 1 0 0 1 0 0 2
EndChar

StartChar: florin
Encoding: 402 402 415
Width: 748
VWidth: 1920
Flags: HW
LayerCount: 2
Fore
SplineSet
797 816 m 6
 87 816 l 6
 80 816 78 819 80 826 c 6
 129 1040 l 6
 131 1047 134 1050 141 1050 c 6
 851 1050 l 6
 858 1050 861 1047 859 1040 c 6
 810 826 l 6
 808 819 804 816 797 816 c 6
282 1194 m 6
 336 1426 565 1461 749 1461 c 4
 1098 1461 1124 1270 1063 1127 c 4
 1061 1122 1057 1120 1050 1120 c 6
 849 1120 l 6
 842 1120 841 1123 842 1127 c 4
 855 1167 856 1227 817 1227 c 4
 769 1227 735 1115 711 1010 c 6
 692 920 l 6
 690 913 688 910 681 910 c 6
 227 910 l 6
 220 910 218 913 220 920 c 6
 282 1194 l 6
482 15 m 6
 405.765625 -313.3203125 125 -360 -59 -360 c 4
 -408 -360 -384 -169 -323 -26 c 4
 -321 -21 -316 -19 -309 -19 c 6
 -108 -19 l 6
 -101 -19 -101 -22 -102 -26 c 4
 -115 -66 -106 -86 -67 -86 c 4
 -19 -86 5 -14 29 91 c 6
 248 1040 l 6
 250 1047 252 1050 259 1050 c 6
 713 1050 l 6
 720 1050 721.64453125 1047.08105469 720 1040 c 6
 482 15 l 6
EndSplineSet
EndChar

StartChar: uni0394
Encoding: 916 916 430
Width: 1445
VWidth: 1920
Flags: HW
LayerCount: 2
Fore
SplineSet
-132 0 m 2
 -135 0 -142 1 -137 10 c 2
 661 1390 l 2
 666 1399 672 1400 676 1400 c 2
 1176 1400 l 2
 1182 1400 1186 1397 1187 1390 c 2
 1357 10 l 2
 1357 7 1358 0 1348 0 c 2
 -132 0 l 2
373 250 m 1
 835 250 l 1
 766 978 l 1
 373 250 l 1
EndSplineSet
EndChar

StartChar: uni03A9
Encoding: 937 937 431
Width: 1690
VWidth: 1920
Flags: HW
LayerCount: 2
Fore
SplineSet
899 371 m 0
 1053 454 1153 578 1195 758 c 2
 1210 823 l 2
 1249 991 1172 1095 978 1095 c 0
 784 1095 659 991 620 823 c 2
 605 758 l 2
 563 577 607 452 725 370 c 0
 737 362 739 362 736 351 c 2
 657 10 l 2
 655 3 652 0 645 0 c 2
 -55 0 l 2
 -62 0 -65 3 -63 10 c 2
 15 345 l 2
 17 352 20 355 27 355 c 2
 372 355 l 5
 195 462 79 643 126 848 c 6
 134 883 l 2
 223 1269 574 1435 1056 1435 c 0
 1538 1435 1813 1269 1724 883 c 2
 1716 848 l 6
 1669 643 1466 462 1240 355 c 5
 1587 355 l 2
 1594 355 1597 352 1595 345 c 2
 1517 10 l 2
 1515 3 1512 0 1505 0 c 2
 805 0 l 2
 798 0 795 3 797 10 c 2
 876 351 l 2
 879 362 881 361 899 371 c 0
EndSplineSet
EndChar

StartChar: pi
Encoding: 960 960 432
Width: 1515
VWidth: 1920
Flags: HW
LayerCount: 2
Fore
SplineSet
777 990 m 2
 550 10 l 2
 548 3 545 0 538 0 c 2
 68 0 l 2
 61 0 58 3 60 10 c 2
 287 990 l 2
 289 997 292 1000 299 1000 c 2
 769 1000 l 2
 776 1000 779 997 777 990 c 2
1444 320 m 2
 1372 10 l 2
 1370 3 1367 0 1360 -1 c 0
 859 -58 705 44 776 352 c 258
 903 900 l 2
 905 907 908 910 915 910 c 2
 1380 910 l 2
 1387 910 1390 907 1388 900 c 2
 1277 422 l 258
 1252 315 1333 311 1437 329 c 0
 1443 330 1446 327 1444 320 c 2
53 705 m 10
 130 1040 l 18
 132 1047 135 1050 142 1050 c 10
 1592 1050 l 18
 1599 1050 1602 1047 1600 1040 c 10
 1523 705 l 18
 1521 698 1517 695 1510 695 c 10
 60 695 l 18
 53 695 51 698 53 705 c 10
EndSplineSet
EndChar

StartChar: minute
Encoding: 8242 8242 433
Width: 570
VWidth: 1920
Flags: HW
LayerCount: 2
Fore
SplineSet
302 930 m 2
 151 930 l 2
 144 930 142 934 145 940 c 2
 276 1410 l 2
 280 1417 283 1420 290 1420 c 2
 770 1420 l 2
 777 1420 780 1416 776 1410 c 2
 319 940 l 2
 315 934 309 930 302 930 c 2
EndSplineSet
EndChar

StartChar: Euro
Encoding: 8364 8364 435
Width: 1555
VWidth: 1920
Flags: HW
LayerCount: 2
Fore
SplineSet
-5 455 m 14
 42 660 l 18
 44 667 48 670 55 670 c 10
 975 670 l 18
 982 670 984 667 982 660 c 10
 935 455 l 22
 933 448 930 445 923 445 c 14
 3 445 l 22
 -4 445 -7 448 -5 455 c 14
57 725 m 10
 105 930 l 18
 107 937 110 940 117 940 c 10
 1037 940 l 18
 1044 940 1047 937 1045 930 c 10
 997 725 l 18
 995 718 992 715 985 715 c 10
 65 715 l 18
 58 715 55 718 57 725 c 10
1473 448 m 256
 1380 226 1154 -35 687 -35 c 256
 200 -35 55 238 143 618 c 258
 181 783 l 258
 269 1163 539 1435 1026 1435 c 256
 1513 1435 1594 1183 1568 1033 c 256
 1567 1024 1563 1023 1556 1023 c 258
 1207 1023 l 258
 1200 1023 1191 1026 1188 1033 c 256
 1174 1069 1145 1095 1008 1095 c 256
 831 1095 727 983 683 793 c 258
 640 608 l 258
 596 418 628 305 825 305 c 256
 992 305 1074 395 1103 448 c 256
 1108 456 1109 458 1116 458 c 258
 1466 458 l 258
 1473 458 1477 457 1473 448 c 256
EndSplineSet
EndChar

StartChar: uni2116
Encoding: 8470 8470 436
Width: 2180
VWidth: 1920
Flags: HW
LayerCount: 2
Fore
SplineSet
1332 10 m 10
 1387 245 l 18
 1389 252 1392 255 1399 255 c 10
 2029 255 l 18
 2036 255 2039 252 2037 245 c 10
 1982 10 l 18
 1980 3 1977 0 1970 0 c 10
 1340 0 l 18
 1333 0 1330 3 1332 10 c 10
EndSplineSet
Refer: 132 8304 S 1 0 0 1 1310 -295 2
Refer: 25 78 N 1 0 0 1 0 0 2
EndChar

StartChar: trademark
Encoding: 8482 8482 437
Width: 1924
VWidth: 1920
Flags: HW
LayerCount: 2
Fore
SplineSet
244 1400 m 6
 1006 1400 l 6
 1010 1400 1012 1398 1011 1394 c 6
 965 1196 l 6
 964 1192 962 1190 958 1190 c 6
 724 1190 l 261
 580 566 l 6
 579 562 576 560 572 560 c 6
 290 560 l 6
 286 560 285 562 286 566 c 6
 430 1190 l 261
 196 1190 l 6
 192 1190 190 1192 191 1196 c 6
 237 1394 l 6
 238 1398 240 1400 244 1400 c 6
1191 1058 m 257
 1078 566 l 2
 1077 562 1074 560 1070 560 c 2
 872 560 l 2
 868 560 867 562 868 566 c 2
 1059 1394 l 2
 1060 1398 1062 1400 1066 1400 c 2
 1426 1400 l 2
 1430 1400 1432 1398 1433 1394 c 2
 1478 973 l 257
 1735 1394 l 2
 1738 1398 1740 1400 1744 1400 c 2
 2086 1400 l 2
 2090 1400 2092 1398 2091 1394 c 2
 1900 566 l 2
 1899 562 1896 560 1892 560 c 2
 1622 560 l 2
 1618 560 1617 562 1618 566 c 2
 1731 1058 l 257
 1440 566 l 2
 1437 562 1434 560 1430 560 c 2
 1274 560 l 2
 1270 560 1269 562 1268 566 c 2
 1191 1058 l 257
EndSplineSet
EndChar

StartChar: partialdiff
Encoding: 8706 8706 438
Width: 1314
VWidth: 1920
Flags: HW
LayerCount: 2
Fore
SplineSet
669 585 m 256
 589 585 522 550 503 467 c 258
 494 427 l 258
 476 347 529 315 618 315 c 256
 695 315 765 352 788 452 c 258
 845 698 l 258
 911 984 656 1110 401 1230 c 0
 392 1234 390 1238 396 1245 c 2
 613 1535 l 2
 619 1543 621 1545 633 1540 c 0
 1069 1377 1414 1059 1313 623 c 258
 1293 537 l 258
 1217 207 984 -35 527 -35 c 256
 135 -35 -75 89 -13 357 c 258
 13 467 l 258
 74 731 261 885 618 885 c 256
 855 885 919 756 874 562 c 257
 791 462 l 257
 795 482 l 258
 812 555 739 585 669 585 c 256
EndSplineSet
EndChar

StartChar: summation
Encoding: 8721 8721 439
Width: 1550
VWidth: 1920
Flags: HW
LayerCount: 2
Fore
SplineSet
1276 505 m 2
 790 -10 l 1
 1366 -10 l 2
 1373 -10 1375 -13 1373 -20 c 2
 1297 -350 l 2
 1295 -357 1292 -360 1285 -360 c 2
 -125 -360 l 2
 -132 -360 -134 -358 -126 -350 c 2
 692 520 l 1
 276 1390 l 2
 272 1398 274 1400 281 1400 c 2
 1691 1400 l 2
 1698 1400 1701 1397 1699 1390 c 2
 1623 1060 l 2
 1621 1053 1617 1050 1610 1050 c 2
 1034 1050 l 1
 1283 535 l 2
 1288 523 1287 517 1276 505 c 2
EndSplineSet
EndChar

StartChar: minus
Encoding: 8722 8722 440
Width: 1170
Flags: HW
LayerCount: 2
Fore
SplineSet
87 335 m 10
 165 670 l 22
 167 677 170 680 177 680 c 14
 1067 680 l 22
 1074 680 1077 677 1075 670 c 14
 997 335 l 18
 995 328 992 325 985 325 c 10
 95 325 l 18
 88 325 85 328 87 335 c 10
EndSplineSet
EndChar

StartChar: integral
Encoding: 8747 8747 441
Width: 775
VWidth: 1920
Flags: HW
LayerCount: 2
Fore
SplineSet
471 -102 m 6
 416 -339 176 -383 -205 -355 c 0
 -214 -354 -216 -351 -214 -344 c 2
 -154 -84 l 2
 -152 -77 -149 -73 -137 -76 c 0
 -65 -91 -6 -67 14 18 c 2
 284 1188 l 2
 339 1425 580 1469 961 1441 c 0
 970 1440 972 1437 970 1430 c 2
 910 1170 l 2
 908 1163 904 1159 892 1162 c 0
 820 1177 762 1153 742 1068 c 2
 471 -102 l 6
EndSplineSet
EndChar

StartChar: radical
Encoding: 8730 8730 443
Width: 1305
VWidth: 1920
Flags: HMW
LayerCount: 2
Fore
SplineSet
522 1050 m 2
 529 1050 532 1046 533 1040 c 2
 607 598 l 1
 1060 1590 l 2
 1062 1597 1065 1600 1072 1600 c 2
 1477 1600 l 2
 1484 1600 1488 1597 1485 1590 c 2
 518 -143 l 6
 514 -151 512 -151 511 -143 c 6
 221 700 l 1
 80 700 l 2
 73 700 70 703 72 710 c 2
 148 1040 l 2
 150 1047 153 1050 160 1050 c 2
 522 1050 l 2
EndSplineSet
EndChar

StartChar: infinity
Encoding: 8734 8734 444
Width: 1432
Flags: HMW
LayerCount: 2
Fore
SplineSet
350 311 m 4
 140 311 41 481 86 675 c 0
 131 869 307 1035 517 1035 c 4
 731 1035 770 935 791 835 c 1
 858 935 931 1035 1155 1035 c 4
 1365 1035 1463 869 1418 675 c 0
 1373 481 1198 311 988 311 c 4
 764 311 715 401 716 511 c 1
 645 401 564 311 350 311 c 4
461 567 m 0
 529 567 597 601 668 675 c 1
 635 747 578 781 510 781 c 0
 430 781 380 745 364 675 c 0
 348 607 381 567 461 567 c 0
995 567 m 4
 1075 567 1124 607 1140 675 c 4
 1156 745 1124 781 1044 781 c 4
 986 781 905 747 838 675 c 1
 851 603 937 567 995 567 c 4
EndSplineSet
EndChar

StartChar: product
Encoding: 8719 8719 445
Width: 1420
VWidth: 1920
Flags: HW
LayerCount: 2
Fore
SplineSet
1543 1400 m 2
 1550 1400 1553 1397 1551 1390 c 2
 1232 10 l 2
 1230 3 1227 0 1220 0 c 2
 750 0 l 2
 743 0 740 3 742 10 c 2
 982 1050 l 257
 682 1050 l 257
 442 10 l 2
 440 3 437 0 430 0 c 2
 -40 0 l 2
 -47 0 -50 3 -48 10 c 2
 271 1390 l 18
 273 1397 276 1400 283 1400 c 10
 1543 1400 l 2
EndSplineSet
EndChar

StartChar: uni2219
Encoding: 8729 8729 446
Width: 548
Flags: HW
LayerCount: 2
Fore
SplineSet
70 675 m 4
 70 807 162 900 294 900 c 4
 426 900 518 807 518 675 c 4
 518 543 434 450 302 450 c 4
 170 450 70 543 70 675 c 4
EndSplineSet
EndChar

StartChar: approxequal
Encoding: 8776 8776 447
Width: 1180
VWidth: 1920
Flags: HW
LayerCount: 2
Fore
SplineSet
486 624 m 260
 404 624 365 570 354 537 c 4
 352 531 349 528 342 528 c 6
 112 528 l 6
 105 528 103 531 104 537 c 4
 151 725 316 889 517 889 c 260
 646 889 694 767 776 767 c 260
 858 767 898 821 908 853 c 4
 911 860 913 863 920 863 c 6
 1149 863 l 6
 1156 863 1159 860 1157 853 c 4
 1110 665 965 502 745 502 c 260
 616 502 588 624 486 624 c 260
396 234 m 256
 314 234 275 180 264 147 c 0
 262 141 259 138 252 138 c 2
 22 138 l 2
 15 138 13 141 14 147 c 0
 61 335 226 499 427 499 c 256
 556 499 604 377 686 377 c 256
 768 377 808 431 818 463 c 0
 821 470 823 473 830 473 c 2
 1059 473 l 2
 1066 473 1069 470 1067 463 c 0
 1020 275 925 112 705 112 c 256
 576 112 498 234 396 234 c 256
EndSplineSet
EndChar

StartChar: notequal
Encoding: 8800 8800 448
Width: 1180
VWidth: 1920
Flags: HW
LayerCount: 2
Fore
SplineSet
1008 960 m 6
 1050 918 l 6
 1055 913 1055 909 1050 904 c 6
 186 40 l 6
 181 35 177 35 172 40 c 6
 130 82 l 6
 125 87 125 91 130 96 c 6
 994 960 l 6
 999 965 1003 965 1008 960 c 6
EndSplineSet
Refer: 83 61 N 1 0 0 1 0 0 2
EndChar

StartChar: lessequal
Encoding: 8804 8804 449
Width: 1010
VWidth: 1920
Flags: HW
LayerCount: 2
Fore
SplineSet
-58 10 m 14
 8 295 l 22
 10 302 13 305 20 305 c 14
 840 305 l 22
 847 305 850 302 848 295 c 14
 782 10 l 22
 780 3 777 0 770 0 c 14
 -50 0 l 22
 -57 0 -60 3 -58 10 c 14
EndSplineSet
Refer: 84 60 N 1 0 0 1 0 230 2
EndChar

StartChar: greaterequal
Encoding: 8805 8805 450
Width: 1010
VWidth: 1920
Flags: HW
LayerCount: 2
Fore
SplineSet
-8 10 m 14
 58 295 l 22
 60 302 63 305 70 305 c 14
 890 305 l 22
 897 305 900 302 898 295 c 14
 832 10 l 22
 830 3 827 0 820 0 c 14
 0 0 l 22
 -7 0 -10 3 -8 10 c 14
EndSplineSet
Refer: 85 62 N 1 0 0 1 0 230 2
EndChar

StartChar: lozenge
Encoding: 9674 9674 451
Width: 1150
Flags: HW
LayerCount: 2
Fore
SplineSet
470 40 m 2
 73 702 l 2
 70 710 71 714 78 722 c 2
 780 1382 l 2
 788 1391 788 1392 792 1382 c 2
 1166 722 l 2
 1168 714 1167 710 1161 702 c 2
 482 40 l 2
 475 30 474 31 470 40 c 2
566 454 m 1
 757 712 l 1
 685 970 l 1
 481 712 l 1
 566 454 l 1
EndSplineSet
EndChar

StartChar: uniF8EA
Encoding: 63722 63722 452
Width: 1212
VWidth: 1920
Flags: HW
LayerCount: 2
Fore
SplineSet
256 1400 m 6
 714 1400 l 6
 716 1400 716 1398 716 1396 c 6
 689 1278 l 6
 689 1276 687 1274 685 1274 c 6
 544 1274 l 261
 458 900 l 6
 458 898 456 896 454 896 c 6
 284 896 l 6
 282 896 282 898 282 900 c 6
 368 1274 l 261
 227 1274 l 6
 225 1274 225 1276 225 1278 c 6
 252 1396 l 6
 252 1398 254 1400 256 1400 c 6
825 1195 m 261
 757 900 l 6
 757 898 754 896 752 896 c 6
 634 896 l 6
 632 896 631 898 631 900 c 6
 745 1396 l 6
 745 1398 748 1400 750 1400 c 6
 966 1400 l 6
 968 1400 968 1398 969 1396 c 6
 997 1144 l 261
 1151 1396 l 6
 1152 1398 1154 1400 1156 1400 c 6
 1362 1400 l 6
 1364 1400 1364 1398 1364 1396 c 6
 1250 900 l 6
 1250 898 1248 896 1246 896 c 6
 1084 896 l 6
 1082 896 1081 898 1081 900 c 6
 1149 1195 l 261
 974 900 l 6
 973 898 970 896 968 896 c 6
 875 896 l 6
 873 896 872 898 871 900 c 6
 825 1195 l 261
EndSplineSet
EndChar

StartChar: uniF8E8
Encoding: 63720 63720 453
Width: 936
Flags: HW
LayerCount: 2
Fore
SplineSet
565 1150 m 261
 540 1038 l 261
 576 1038 l 262
 622 1038 637 1061 644 1093 c 262
 645 1094 l 262
 652 1123 647 1150 601 1150 c 262
 565 1150 l 261
667 1276 m 262
 813 1276 851 1208 832 1125 c 262
 830 1117 l 262
 810 1031 716 980 598 980 c 261
 603 1002 l 261
 731 1002 804 991 784 905 c 262
 780 890 l 262
 771 849 775 819 786 794 c 4
 788 790 787 788 787 786 c 6
 785 775 l 6
 785 773 782 772 780 772 c 6
 600 772 l 6
 598 772 597 772 596 775 c 4
 584 810 590 859 597 890 c 262
 601 905 l 262
 608 934 600 948 562 948 c 262
 519 948 l 261
 479 775 l 6
 479 773 476 772 474 772 c 6
 305 772 l 6
 303 772 303 773 303 775 c 6
 418 1272 l 6
 418 1274 420 1276 422 1276 c 6
 667 1276 l 262
1001 1016 m 4
 948 786 715 599 485 599 c 4
 255 599 112 786 165 1016 c 4
 218 1246 448 1435 678 1435 c 4
 908 1435 1054 1246 1001 1016 c 4
950 1016 m 4
 997 1219 870 1384 667 1384 c 4
 464 1384 263 1219 216 1016 c 4
 169 813 294 650 497 650 c 4
 700 650 903 813 950 1016 c 4
EndSplineSet
EndChar

StartChar: uniF8E9
Encoding: 63721 63721 454
Width: 936
Flags: HW
LayerCount: 2
Fore
SplineSet
822 981 m 260
 787 862 695 753 527 753 c 260
 352 753 299 851 331 988 c 262
 345 1048 l 262
 377 1185 474 1282 649 1282 c 260
 817 1282 855 1178 835 1080 c 260
 834 1077 832 1076 830 1076 c 262
 705 1076 l 262
 703 1076 700 1077 701 1080 c 260
 710 1125 692 1160 639 1160 c 260
 586 1160 544 1127 526 1051 c 262
 510 985 l 262
 492 906 517 875 577 875 c 260
 637 875 675 915 689 981 c 260
 690 984 692 985 694 985 c 262
 820 985 l 262
 822 985 823 984 822 981 c 260
1001 1016 m 4
 948 786 715 599 485 599 c 4
 255 599 112 786 165 1016 c 4
 218 1246 448 1435 678 1435 c 4
 908 1435 1054 1246 1001 1016 c 4
950 1016 m 4
 997 1219 870 1384 667 1384 c 4
 464 1384 263 1219 216 1016 c 4
 169 813 294 650 497 650 c 4
 700 650 903 813 950 1016 c 4
EndSplineSet
EndChar

StartChar: uni1E9E
Encoding: 7838 7838 457
Width: 1527
VWidth: 1920
InSpiro: 1
Flags: HW
LayerCount: 2
Fore
SplineSet
182.022460938 1005 m 2
 247.588867188 1289 568.065429688 1434 958.065429688 1434 c 0
 1329.06542969 1434 1482.73730469 1229 1550.87695312 1091 c 0
 1559.72167969 1073 1560.49023438 1072 1544.796875 1056 c 2
 1220.92285156 775 l 1
 1319.37597656 686 1523.36425781 569 1467.72460938 328 c 0
 1404.46679688 54 1189.91992188 -35 870.919921875 -35 c 0
 772.919921875 -35 634.537109375 -15 550.694335938 16 c 0
 527.541015625 24 529.002929688 26 531.080078125 35 c 2
 604.958007812 355 l 2
 607.498046875 366 609.728515625 367 627.650390625 358 c 0
 720.03125 312 813.567382812 297 875.567382812 297 c 0
 940.567382812 297 976.801757812 324 987.65234375 371 c 0
 1010.04589844 468 832.365234375 582 677.143554688 672 c 0
 661.221679688 681 658.528320312 678 674.915039062 697 c 2
 1003.48828125 1046 l 1
 985.567382812 1068 934.108398438 1092 876.108398438 1092 c 0
 707.108398438 1092 674.641601562 1038 650.861328125 935 c 2
 437.30859375 10 l 2
 435.692382812 3 432 0 425 0 c 2
 -40 0 l 2
 -47 0 -49.3076171875 3 -47.69140625 10 c 2
 182.022460938 1005 l 2
EndSplineSet
EndChar
